<svg width="24" height="34" viewBox="0 0 24 34" fill="none" xmlns="http://www.w3.org/2000/svg">
<path d="M12 33.3058C11.9442 33.3059 11.889 33.2937 11.8384 33.2702C11.7878 33.2467 11.7429 33.2123 11.707 33.1696C11.2296 32.6013 0 19.1752 0 12.6943C4.74244e-08 9.51174 1.26428 6.45949 3.51472 4.20905C5.76516 1.95862 8.8174 0.694336 12 0.694336C15.1826 0.694336 18.2348 1.95862 20.4853 4.20905C22.7357 6.45949 24 9.51174 24 12.6943C24 19.1755 12.7707 32.6016 12.293 33.1699C12.257 33.2126 12.2122 33.2468 12.1616 33.2703C12.1109 33.2938 12.0558 33.3059 12 33.3058ZM12 1.45867C9.02115 1.46204 6.16527 2.64688 4.05891 4.75324C1.95254 6.85961 0.767703 9.71549 0.764331 12.6943C0.764331 18.3376 10.2038 30.1306 12 32.3239C13.7962 30.1305 23.2357 18.3366 23.2357 12.6943C23.2323 9.71549 22.0475 6.85961 19.9411 4.75324C17.8347 2.64688 14.9788 1.46204 12 1.45867Z" fill="#5799D7"/>
<path d="M12 18.4914C10.8534 18.4914 9.73247 18.1514 8.77908 17.5143C7.82569 16.8773 7.08262 15.9718 6.64383 14.9125C6.20504 13.8531 6.09025 12.6874 6.31396 11.5628C6.53768 10.4382 7.08986 9.40521 7.90067 8.59443C8.71149 7.78365 9.74452 7.23152 10.8691 7.00785C11.9937 6.78419 13.1594 6.89903 14.2188 7.33786C15.2781 7.7767 16.1835 8.51981 16.8205 9.47323C17.4575 10.4267 17.7975 11.5476 17.7975 12.6942C17.7956 14.2312 17.1842 15.7047 16.0974 16.7915C15.0105 17.8783 13.537 18.4896 12 18.4914ZM12 7.66082C11.0046 7.66082 10.0315 7.956 9.20377 8.50903C8.37609 9.06207 7.73098 9.84812 7.35003 10.7678C6.96907 11.6875 6.86939 12.6994 7.06357 13.6758C7.25775 14.6521 7.73709 15.5489 8.44096 16.2528C9.14482 16.9567 10.0416 17.4361 11.0179 17.6303C11.9942 17.8246 13.0062 17.7249 13.9259 17.344C14.8456 16.9631 15.6317 16.318 16.1848 15.4904C16.7378 14.6627 17.0331 13.6896 17.0331 12.6942C17.0317 11.3597 16.5009 10.0804 15.5574 9.13675C14.6138 8.19313 13.3344 7.66234 12 7.66082Z" fill="#5799D7"/>
</svg>
