<svg width="24" height="24" viewBox="0 0 24 24" fill="none" xmlns="http://www.w3.org/2000/svg">
<g clip-path="url(#clip0_54_5940)">
<path d="M12 24C11.9589 24.0001 11.9183 23.9911 11.8811 23.9738C11.8438 23.9565 11.8108 23.9312 11.7844 23.8998C11.433 23.4816 3.16876 13.6008 3.16876 8.83125C3.16876 6.48906 4.0992 4.24279 5.75538 2.58661C7.41156 0.930433 9.65782 0 12 0C14.3422 0 16.5885 0.930433 18.2446 2.58661C19.9008 4.24279 20.8313 6.48906 20.8313 8.83125C20.8313 13.601 12.5672 23.4818 12.2156 23.9C12.1892 23.9314 12.1562 23.9566 12.1189 23.9739C12.0817 23.9912 12.0411 24.0001 12 24ZM12 0.5625C9.80777 0.564981 7.70602 1.43695 6.15586 2.9871C4.60571 4.53726 3.73374 6.639 3.73126 8.83125C3.73126 12.9844 10.6781 21.6633 12 23.2774C13.3219 21.6632 20.2688 12.9836 20.2688 8.83125C20.2663 6.639 19.3943 4.53726 17.8442 2.9871C16.294 1.43695 14.1923 0.564981 12 0.5625Z" fill="white"/>
<path d="M12 13.0976C11.1561 13.0976 10.3312 12.8474 9.6296 12.3786C8.92796 11.9097 8.38111 11.2434 8.05819 10.4638C7.73526 9.68414 7.65078 8.82627 7.81543 7.99863C7.98007 7.17099 8.38644 6.41076 8.98314 5.81408C9.57985 5.2174 10.3401 4.81106 11.1677 4.64646C11.9954 4.48185 12.8533 4.56637 13.6329 4.88933C14.4125 5.21228 15.0788 5.75917 15.5476 6.46082C16.0164 7.16248 16.2666 7.9874 16.2666 8.83125C16.2652 9.96238 15.8153 11.0468 15.0154 11.8466C14.2156 12.6464 13.1311 13.0963 12 13.0976ZM12 5.127C11.2674 5.127 10.5513 5.34424 9.94215 5.75123C9.33302 6.15823 8.85826 6.73672 8.5779 7.41354C8.29755 8.09035 8.22418 8.83511 8.36709 9.55362C8.51 10.2721 8.86276 10.9321 9.38076 11.4502C9.89876 11.9682 10.5587 12.321 11.2773 12.4639C11.9958 12.6069 12.7405 12.5335 13.4173 12.2532C14.0942 11.9729 14.6727 11.4982 15.0797 10.8891C15.4867 10.28 15.704 9.56384 15.7041 8.83125C15.703 7.84918 15.3124 6.90764 14.618 6.2132C13.9236 5.51875 12.9821 5.12812 12 5.127Z" fill="white"/>
</g>
<defs>
<clipPath id="clip0_54_5940">
<rect width="24" height="24" fill="white"/>
</clipPath>
</defs>
</svg>
