<svg width="70" height="70" viewBox="0 0 70 70" fill="none" xmlns="http://www.w3.org/2000/svg">
<g clip-path="url(#clip0_54_6072)">
<path d="M69.1981 0.803555C68.6824 0.287305 67.9955 0.00292969 67.2649 0.00292969C66.5348 0.00292969 65.848 0.287305 65.3328 0.803555L0.80209 65.3337C0.28584 65.85 0.00146484 66.5368 0.00146484 67.2669C0.00146484 67.997 0.28584 68.6833 0.801543 69.199C1.31725 69.7153 2.00412 69.9996 2.73475 69.9996C3.46482 69.9996 4.15061 69.7153 4.66686 69.199L69.1976 4.66887C69.7138 4.15316 69.9982 3.46684 69.9982 2.73676C69.9982 2.00668 69.7138 1.3198 69.1981 0.803555ZM68.4243 3.89504L3.89357 68.4257C3.27342 69.0459 2.19334 69.0448 1.57537 68.4257C1.26584 68.1162 1.09521 67.705 1.09521 67.2669C1.09521 66.8289 1.26584 66.4165 1.57537 66.107L66.1066 1.57684C66.4151 1.2673 66.8269 1.09668 67.2649 1.09668C67.7035 1.09668 68.1153 1.26676 68.4243 1.57684C68.7338 1.88637 68.9044 2.29871 68.9044 2.73676C68.9044 3.17426 68.7338 3.58605 68.4243 3.89504Z" fill="#4495E1"/>
<path d="M54.9674 39.9312C46.679 39.9312 39.936 46.6741 39.936 54.9626C39.936 63.2504 46.679 69.9934 54.9674 69.9934C63.2553 69.9934 69.9983 63.2504 69.9983 54.9626C69.9983 46.6741 63.2553 39.9312 54.9674 39.9312ZM54.9674 68.8997C47.2828 68.8997 41.0298 62.6472 41.0298 54.9626C41.0298 47.2779 47.2822 41.0249 54.9674 41.0249C62.6521 41.0249 68.9045 47.2779 68.9045 54.9626C68.9045 62.6472 62.6521 68.8997 54.9674 68.8997Z" fill="#4495E1"/>
<path d="M64.2359 49.7038C64.086 49.4418 63.7519 49.35 63.4899 49.4993C63.228 49.6486 63.1361 49.9827 63.2854 50.2452C64.1008 51.6769 64.5317 53.3088 64.5317 54.9625C64.5317 60.2366 60.2415 64.5274 54.9674 64.5274C49.6934 64.5274 45.4026 60.2366 45.4026 54.9625C45.4026 49.6885 49.6928 45.3977 54.9674 45.3977C56.6206 45.3977 58.2525 45.8292 59.687 46.6451C59.9473 46.7933 60.2825 46.7025 60.4323 46.44C60.5816 46.1781 60.4898 45.844 60.2273 45.6947C58.6288 44.7847 56.8099 44.304 54.9674 44.304C49.0902 44.304 44.3088 49.0853 44.3088 54.9625C44.3088 60.8398 49.0902 65.6211 54.9674 65.6211C60.8441 65.6211 65.6255 60.8398 65.6255 54.9625C65.6255 53.119 65.1448 51.3007 64.2359 49.7038Z" fill="#4495E1"/>
<path d="M15.0346 0C6.74675 0 0.00378418 6.74297 0.00378418 15.0314C0.00378418 23.3198 6.74675 30.0628 15.0346 30.0628C23.3231 30.0628 30.0666 23.3198 30.066 15.0309C30.066 6.74297 23.3231 0 15.0346 0ZM15.0346 28.9685C7.34996 28.9685 1.09753 22.7155 1.09753 15.0309C1.09753 7.34617 7.34941 1.09375 15.0346 1.09375C22.7199 1.09375 28.9723 7.34617 28.9723 15.0309C28.9723 22.7155 22.7193 28.9685 15.0346 28.9685Z" fill="#4495E1"/>
<path d="M24.3042 9.77374C24.1544 9.51069 23.8191 9.41936 23.5588 9.56866C23.2963 9.71796 23.2045 10.0521 23.3538 10.3141C24.1686 11.7469 24.5995 13.3782 24.5995 15.0314C24.5995 20.3055 20.3093 24.5962 15.0347 24.5962C9.76118 24.5962 5.4704 20.3055 5.4704 15.0314C5.4704 9.75733 9.76063 5.46655 15.0347 5.46655C16.689 5.46655 18.3203 5.89804 19.7537 6.71452C20.0151 6.86327 20.3503 6.77194 20.4996 6.50999C20.6489 6.24749 20.557 5.91335 20.2951 5.76405C18.6971 4.85405 16.8782 4.3728 15.0347 4.3728C9.15798 4.3728 4.37665 9.15413 4.37665 15.0314C4.37665 20.9087 9.15798 25.69 15.0347 25.69C20.912 25.69 25.6933 20.9081 25.6933 15.0314C25.6933 13.1884 25.2131 11.3706 24.3042 9.77374Z" fill="#4495E1"/>
</g>
<defs>
<clipPath id="clip0_54_6072">
<rect width="70" height="70" fill="white"/>
</clipPath>
</defs>
</svg>
