<svg width="91" height="70" viewBox="0 0 91 70" fill="none" xmlns="http://www.w3.org/2000/svg">
<path d="M90.9865 57.1714L88.2389 15.674C88.1776 14.7469 87.9071 13.8579 87.4528 13.0464C86.6004 11.2714 84.8355 9.93487 82.6834 9.48759C81.806 9.25188 80.8847 9.14531 79.9519 9.19452L63.9606 10.0117C64.0284 9.8609 64.0619 9.69979 64.0502 9.53429C64.0302 9.23339 63.8774 8.9563 63.6191 8.75444C63.3622 8.55259 63.0439 8.44852 62.6871 8.46858L60.2392 8.59365L60.1179 6.76094C59.8538 2.78899 55.6275 -0.235107 50.6748 0.0143934L33.2001 0.90708C28.2558 1.16034 24.4478 4.59693 24.7104 8.57014L24.8338 10.4379L22.862 10.5386C22.1526 10.5749 21.6074 11.1115 21.6474 11.7372C21.6581 11.8914 21.7044 12.0359 21.7772 12.1669L7.38986 12.9019C5.30455 13.0085 3.38909 13.826 1.99174 15.2039C0.592969 16.5818 -0.107844 18.3496 0.0134779 20.1801L2.76107 61.6775C2.82351 62.6206 3.10362 63.5073 3.55037 64.3063C4.37608 66.008 6.04854 67.3009 8.08069 67.7981C8.79078 68.0099 9.54298 68.1338 10.3226 68.157C10.4461 69.202 11.4506 70 12.6438 70C12.6895 70 12.7352 69.9987 12.7823 69.9975L15.5156 69.8583C16.1365 69.827 16.7074 69.5825 17.1242 69.1725C17.5071 68.7932 17.7126 68.3159 17.7137 67.8162L77.2068 64.7765C77.3474 65.8043 78.344 66.5844 79.5252 66.5844C79.5694 66.5844 79.6151 66.5832 79.6622 66.5819L82.3955 66.4427C83.6558 66.3775 84.6267 65.4391 84.5925 64.338C86.2917 64.0609 87.8339 63.3052 89.0083 62.1473C90.407 60.7697 91.1078 59.0019 90.9865 57.1714ZM64.2507 64.1922L61.8696 28.2243C62.4755 28.4556 63.1281 28.5804 63.8004 28.5804C63.896 28.5804 63.9931 28.5779 64.0887 28.5728L66.4109 28.4537C67.1974 28.4133 67.9275 28.2064 68.5683 27.8798L70.9495 63.8499L64.2507 64.1922ZM10.9639 66.9157C7.42983 67.0887 4.37822 64.7141 4.17126 61.606L3.83584 56.5404L9.23111 56.2649C10.8211 56.1947 12.3298 56.6511 13.5173 57.5801C14.7063 58.5092 15.4114 59.783 15.5027 61.1672L15.8678 66.665L10.9639 66.9157ZM16.8765 66.6136L16.5119 61.1158C16.4062 59.4946 15.5812 58.0039 14.191 56.9169C12.7994 55.8299 11.0238 55.2707 9.17259 55.3785L3.77732 55.654L1.79263 25.6801L8.05357 25.3607C11.8774 25.1638 14.8062 22.2726 14.585 18.9138L14.2453 13.7968L19.9742 13.5041L20.3332 18.9232C20.1715 19.0479 20.0149 19.1789 19.8703 19.3238C18.9954 20.2001 18.5544 21.326 18.6329 22.4945L18.9454 27.2163C19.0396 28.6308 19.8832 29.8492 21.1089 30.5911L23.4718 66.2763L16.8765 66.6136ZM6.79039 14.3801L13.249 14.0504L13.5759 18.9652C13.7657 21.8363 11.2608 24.3062 7.99505 24.4742L1.73375 24.7936L1.42367 20.1086C1.32518 18.6104 1.90039 17.1622 3.0451 16.0313C3.59391 15.4897 4.24227 15.0575 4.95414 14.7409C5.53435 14.5381 6.15095 14.4127 6.79039 14.3801ZM28.6444 30.6579L30.9702 65.7798L24.2718 66.1221L21.9467 30.9998C22.543 31.2268 23.1956 31.3546 23.8783 31.3546C23.9725 31.3546 24.0681 31.3534 24.1637 31.3484L26.4874 31.2293C27.2592 31.1898 27.9918 30.9901 28.6444 30.6579ZM29.2778 29.295C28.5442 30.0285 27.535 30.4635 26.4389 30.5199L24.1152 30.6391C21.8643 30.7669 19.886 29.2022 19.7519 27.1761L19.4393 22.4544C19.3736 21.474 19.7419 20.5286 20.477 19.7939C21.1738 19.0971 22.1194 18.674 23.1521 18.5856L23.2531 20.1155C22.0024 20.2556 21.0682 21.2358 21.1421 22.3704L21.4561 27.0921C21.4932 27.6638 21.7815 28.1892 22.2625 28.5716C22.7093 28.9277 23.2774 29.1195 23.8711 29.1195C23.9182 29.1195 23.9653 29.1182 24.0139 29.1157L26.3375 28.9966C26.9827 28.964 27.575 28.7082 28.0046 28.2782C28.4343 27.8494 28.6484 27.2977 28.6112 26.726L28.3001 22.0006C28.2234 20.8665 27.1989 20.0036 25.9065 19.9779L25.8055 18.4467C25.8305 18.4464 25.8554 18.4449 25.8811 18.4449C26.8917 18.4449 27.8566 18.7721 28.6216 19.3777C29.448 20.0334 29.939 20.9336 30.0032 21.914L30.3158 26.6358C30.3811 27.6162 30.0129 28.5603 29.2778 29.295ZM24.609 23.3835C24.6319 23.3835 24.6561 23.3835 24.679 23.3822L24.9216 23.3697C25.2442 23.3534 25.5397 23.2267 25.7538 23.0149C25.9679 22.8017 26.0763 22.5309 26.0563 22.2488L25.9536 20.6922C26.7554 20.7167 27.4412 21.301 27.4894 22.0432L27.802 26.7649C27.8277 27.1485 27.6835 27.5197 27.3966 27.8068C27.1111 28.0939 26.7172 28.2632 26.2904 28.2845L23.9668 28.4036C23.5457 28.4299 23.1261 28.2983 22.8063 28.0425C22.4823 27.7855 22.2911 27.4332 22.2654 27.0495L21.9514 22.3278C21.9018 21.5859 22.4959 20.9486 23.3006 20.8327L23.403 22.3855C23.4429 22.9472 23.9767 23.3835 24.609 23.3835ZM23.8783 17.3064C23.8711 17.2137 23.9068 17.1234 23.9782 17.0532C24.0481 16.9842 24.1466 16.9416 24.2522 16.9366L24.4949 16.924C24.502 16.924 24.5091 16.924 24.5177 16.924C24.6162 16.924 24.7075 16.9554 24.7817 17.0118C24.8617 17.0745 24.9088 17.1597 24.9145 17.2525L25.2471 22.2889C25.2542 22.3817 25.2185 22.4707 25.1486 22.5409C25.0786 22.6099 24.9801 22.6525 24.8745 22.6575L24.6319 22.6701C24.4192 22.6939 24.2251 22.5347 24.2108 22.3416L23.8783 17.3064ZM25.7584 17.7402L25.7238 17.2137C25.7067 16.9303 25.5625 16.6708 25.3213 16.4827C25.0786 16.2934 24.7503 16.1956 24.4492 16.2156L24.208 16.2282C23.8854 16.2445 23.5899 16.3711 23.3744 16.583C23.1603 16.7949 23.0518 17.0657 23.0704 17.3491L23.105 17.875C22.3938 17.9324 21.718 18.1226 21.1121 18.4308L20.7906 13.5752L27.489 13.2329L27.8105 18.0878C27.1704 17.8437 26.4756 17.7243 25.7584 17.7402ZM29.4223 30.1667C29.5847 30.0416 29.742 29.9103 29.8873 29.7652C30.7622 28.8888 31.2033 27.7629 31.1248 26.5944L30.8107 21.8727C30.7337 20.7042 30.1485 19.6309 29.1622 18.8498C28.9991 18.7204 28.8257 18.6057 28.6487 18.4978L28.2897 13.0793L59.9477 11.462L60.2578 16.1483C59.1402 17.0105 58.464 18.3054 58.5564 19.7187L58.8704 24.4404C58.9475 25.6089 59.5327 26.6821 60.519 27.4632C60.6817 27.5921 60.8544 27.7065 61.0314 27.814L63.4436 64.2333L31.7877 65.8513L29.4223 30.1667ZM66.3638 27.7416L64.0416 27.8607C62.9511 27.9196 61.8849 27.5874 61.0599 26.9342C61.0303 26.9106 61.0043 26.8843 60.9754 26.8602C60.9729 26.8555 60.97 26.8511 60.9671 26.8464L60.9675 26.8536C60.1989 26.2054 59.74 25.34 59.6783 24.3978L59.3643 19.6761C59.2333 17.6998 60.8872 15.9975 63.076 15.8079L63.1774 17.335C61.9277 17.476 60.9946 18.4555 61.0699 19.5896L61.3825 24.3113C61.4596 25.4534 62.5301 26.3374 63.8004 26.3374C63.8461 26.3374 63.8917 26.3361 63.9403 26.3348L66.2639 26.2157C67.5956 26.1468 68.6147 25.1287 68.5377 23.9452L68.2251 19.2234C68.188 18.6517 67.8996 18.1264 67.4186 17.744C66.9769 17.3923 66.4131 17.2021 65.8329 17.1983L65.7319 15.6687C65.7562 15.6684 65.7804 15.6668 65.8043 15.6668C66.8163 15.6668 67.7812 15.994 68.5462 16.5996C69.3726 17.2541 69.8636 18.1555 69.9279 19.136L70.2419 23.8577C70.376 25.8835 68.6361 27.6262 66.3638 27.7416ZM65.1735 19.5118C65.1849 19.7049 65.0179 19.8704 64.7981 19.8817L64.5554 19.8942C64.4484 19.8992 64.3499 19.8691 64.2685 19.8065C64.1886 19.7438 64.1415 19.6585 64.1358 19.5657L63.8018 14.5293C63.7904 14.3362 63.9588 14.1707 64.1772 14.1595L64.4198 14.1469C64.4284 14.1469 64.4355 14.1469 64.4441 14.1469C64.6525 14.1469 64.828 14.2911 64.8409 14.4754L65.1735 19.5118ZM64.5312 20.6064C64.5554 20.6064 64.5811 20.6064 64.604 20.6039L64.8466 20.5913C65.5103 20.5575 66.0199 20.0547 65.9827 19.4704L65.88 17.9164C66.25 17.9302 66.5976 18.0505 66.8748 18.2718C67.1988 18.5289 67.3901 18.8812 67.4158 19.2648L67.7284 23.9865C67.7812 24.7789 67.1032 25.4597 66.2154 25.5049L63.8917 25.624C63.0325 25.6791 62.2417 25.0623 62.1904 24.2686L61.8778 19.5469C61.8282 18.8053 62.4223 18.1684 63.2248 18.0521L63.3279 19.6059C63.3451 19.8892 63.4892 20.1475 63.7304 20.3368C63.9545 20.5111 64.2371 20.6064 64.5312 20.6064ZM65.6852 14.9619L65.6502 14.4328C65.6088 13.8498 65.0193 13.4085 64.3727 13.436L64.1301 13.4486C63.4664 13.4824 62.9568 13.9852 62.9939 14.5694L63.0289 15.0982C62.3056 15.1568 61.6319 15.3527 61.0367 15.6562L60.763 11.5328L67.4629 11.1905L67.7366 15.3126C67.0925 15.0672 66.3949 14.9471 65.6852 14.9619ZM69.3469 27.388C70.4652 26.5257 71.1422 25.2309 71.0497 23.817L70.7357 19.0952C70.6586 17.9267 70.0734 16.8535 69.0886 16.0724C68.9255 15.943 68.7517 15.8282 68.574 15.7207L68.2632 11.0366L74.122 10.7373L74.4867 16.2329C74.5923 17.854 75.4173 19.3447 76.8075 20.4318C78.095 21.4386 79.7178 21.9814 81.4164 21.9814C81.5505 21.9814 81.6875 21.9777 81.826 21.9702L87.2184 21.6949L89.2031 51.6689L82.945 51.9892C79.1198 52.1861 76.1909 55.0773 76.4122 58.4361L76.7519 63.5531L71.7588 63.8082L69.3469 27.388ZM80.0304 10.4358C80.1575 10.4295 80.2831 10.4257 80.4087 10.4257C81.9801 10.4257 83.4831 10.9285 84.6749 11.86C85.9624 12.8656 86.726 14.246 86.8245 15.7442L87.1599 20.8085L81.766 21.084C80.1831 21.158 78.6673 20.6979 77.4798 19.7676C76.2908 18.8398 75.5858 17.566 75.4944 16.1818L75.1294 10.6862L80.0304 10.4358ZM86.0316 62.614C85.455 62.8137 84.8426 62.9375 84.2082 62.9698L77.7496 63.2995L77.4227 58.3847C77.2329 55.5136 79.7378 53.0437 83.005 52.8757L89.262 52.5563L89.5721 57.2413C89.6705 58.7396 89.0953 60.1877 87.9506 61.3186C87.399 61.863 86.7474 62.2971 86.0316 62.614ZM62.7327 9.17947C62.7427 9.17822 62.7527 9.17822 62.7613 9.17822C62.8783 9.17822 62.9911 9.21583 63.0796 9.28604C63.1752 9.36127 63.2323 9.46408 63.2394 9.57692C63.248 9.68851 63.2052 9.79633 63.1195 9.88033C63.0339 9.96559 62.9169 10.0157 62.7884 10.022L54.4614 10.447C54.2331 10.4633 53.9704 10.284 53.9547 10.0508C53.939 9.81765 54.1417 9.61829 54.4072 9.6045L62.7327 9.17947ZM25.5182 8.52876C25.2813 4.94673 28.7497 1.84616 33.2472 1.61672L50.7218 0.724029C50.8988 0.715252 51.0758 0.710237 51.25 0.710237C55.5162 0.710237 59.0802 3.36197 59.3086 6.80232L59.4299 8.63471L57.2365 8.74661L57.1148 6.91359C56.9378 4.26688 54.146 2.25332 50.8346 2.41506L33.3599 3.30805C31.777 3.38955 30.3169 3.96127 29.2507 4.91915C28.1745 5.88581 27.6293 7.1283 27.7149 8.41593L27.8384 10.2844L25.6421 10.3966L25.5182 8.52876ZM22.5765 11.3886C22.6622 11.3046 22.7792 11.2545 22.9077 11.2482L31.2332 10.8232C31.2432 10.8219 31.2532 10.8219 31.2618 10.8219C31.5158 10.8219 31.7271 10.9974 31.7414 11.2194C31.7485 11.3309 31.7057 11.44 31.62 11.524C31.5344 11.6093 31.4174 11.6594 31.2889 11.6657L22.9633 12.0907C22.6608 12.0995 22.4709 11.9252 22.4552 11.6945C22.4481 11.5817 22.4909 11.4739 22.5765 11.3886ZM31.1876 10.1135L28.6462 10.2433L28.5228 8.37455C28.45 7.29004 28.9138 6.23938 29.8288 5.4169C30.7537 4.58565 32.024 4.08916 33.407 4.01894L50.8817 3.12626C53.7206 2.97079 56.1557 4.69974 56.307 6.95653L56.4283 8.78798L54.3615 8.89361C53.6521 8.92997 53.1069 9.46784 53.1469 10.091C53.1576 10.2599 53.2139 10.416 53.2989 10.5564L32.4814 11.6199C32.5374 11.4805 32.5621 11.3313 32.5521 11.1792C32.5093 10.5561 31.8927 10.086 31.1876 10.1135ZM16.5176 68.6998C16.245 68.9681 15.8724 69.1286 15.4671 69.1487L12.7337 69.2879C11.9569 69.3421 11.2636 68.8287 11.1426 68.1523L16.8972 67.8582C16.8851 68.1679 16.7574 68.4635 16.5176 68.6998ZM82.347 65.7322L79.6136 65.8713C78.8383 65.9127 78.141 65.4103 78.0222 64.7351L83.6101 64.4495C83.6665 64.4467 83.7211 64.4376 83.7771 64.4339C83.7522 65.1194 83.1413 65.6917 82.347 65.7322Z" fill="#4495E1"/>
<path d="M7.38846 21.2672C7.43128 21.2672 7.47125 21.2659 7.51264 21.2647C8.07215 21.2358 8.58456 21.0177 8.95709 20.6503C9.32962 20.283 9.51517 19.8103 9.48377 19.3188C9.41526 18.3045 8.40329 17.5322 7.26857 17.5886C6.1153 17.6475 5.23179 18.5202 5.29887 19.5332C5.36453 20.5099 6.28943 21.2672 7.38846 21.2672ZM6.42931 18.6744C6.65768 18.4499 6.97312 18.3158 7.31567 18.2982C7.34136 18.2957 7.36563 18.2957 7.39132 18.2957C8.06787 18.2957 8.63594 18.7609 8.67448 19.3602C8.69446 19.6611 8.57885 19.9507 8.35048 20.1764C8.12211 20.4021 7.80667 20.535 7.46411 20.5525C7.12869 20.5814 6.79184 20.4698 6.53493 20.2692C6.27801 20.0686 6.12671 19.7927 6.10673 19.4906C6.08675 19.1897 6.20236 18.9 6.42931 18.6744Z" fill="#4495E1"/>
<path d="M79.8477 17.0282C80.2345 17.3316 80.7241 17.4946 81.2365 17.4946C81.2779 17.4946 81.3193 17.4933 81.3621 17.4908C82.5168 17.4319 83.4003 16.5593 83.3333 15.5462C83.2647 14.5319 82.2642 13.7721 81.1181 13.816C79.9648 13.8749 79.0813 14.7476 79.1484 15.7606C79.1812 16.2508 79.4295 16.701 79.8477 17.0282ZM81.1637 14.5257C81.1894 14.5231 81.2151 14.5231 81.2408 14.5231C81.5562 14.5231 81.8574 14.6234 82.0929 14.8103C82.3513 15.0109 82.5026 15.2879 82.5225 15.5889C82.5425 15.8898 82.4269 16.1806 82.1985 16.4051C81.9702 16.6295 81.6547 16.7636 81.3122 16.7812C80.9782 16.8075 80.6413 16.6984 80.3844 16.4978C80.1261 16.2972 79.9748 16.0202 79.9548 15.7192C79.9134 15.0974 80.4558 14.562 81.1637 14.5257Z" fill="#4495E1"/>
<path d="M9.85054 59.8482C8.69727 59.9071 7.81376 60.7797 7.88084 61.7928C7.9465 62.7695 8.8714 63.5267 9.97186 63.5267C10.0118 63.5267 10.0518 63.5255 10.0946 63.523C11.2493 63.464 12.1328 62.5914 12.0657 61.5784C11.9972 60.5653 10.991 59.7993 9.85054 59.8482ZM10.9324 62.4372C10.7041 62.6616 10.3886 62.7958 10.0461 62.8133C9.3467 62.8773 8.72867 62.3745 8.6887 61.7514C8.64731 61.1295 9.18969 60.5942 9.89764 60.5578C9.92333 60.5553 9.94903 60.5553 9.97472 60.5553C10.2902 60.5553 10.5899 60.6556 10.8268 60.8424C11.0852 61.043 11.2365 61.3201 11.2564 61.621C11.2764 61.9219 11.1608 62.2128 10.9324 62.4372Z" fill="#4495E1"/>
<path d="M83.7001 56.073C83.1406 56.1018 82.6282 56.32 82.2556 56.6873C81.8831 57.0547 81.6975 57.5274 81.7289 58.0189C81.7946 58.9955 82.7209 59.7528 83.8214 59.7528C83.8614 59.7528 83.9042 59.7516 83.9441 59.7478C85.0974 59.6889 85.9809 58.8163 85.9138 57.8032C85.8453 56.7889 84.8319 56.0216 83.7001 56.073ZM83.8956 59.0394C83.1448 59.0896 82.5768 58.5993 82.5368 57.9775C82.5168 57.6766 82.6324 57.3869 82.8608 57.1613C83.0892 56.9356 83.4046 56.8027 83.7472 56.7851C83.7729 56.7826 83.7986 56.7826 83.8242 56.7826C84.1397 56.7826 84.4408 56.8829 84.6764 57.0672C84.9333 57.2678 85.0846 57.5437 85.1046 57.8458C85.1459 58.4677 84.6036 59.0031 83.8956 59.0394Z" fill="#4495E1"/>
<path d="M4.88201 41.2021L4.08984 41.2285L4.2497 43.9153L5.04187 43.889L4.88201 41.2021Z" fill="#4495E1"/>
<path d="M4.33116 31.9919L3.539 32.0183L3.70029 34.7051L4.49245 34.6788L4.33116 31.9919Z" fill="#4495E1"/>
<path d="M4.60808 36.5969L3.81592 36.6233L3.97578 39.3101L4.76794 39.2838L4.60808 36.5969Z" fill="#4495E1"/>
<path d="M4.6394 50.4399L4.79926 53.1267L5.59143 53.1004L5.43157 50.4136L4.6394 50.4399Z" fill="#4495E1"/>
<path d="M4.05705 27.3855L3.26489 27.4118L3.42475 30.0987L4.21691 30.0723L4.05705 27.3855Z" fill="#4495E1"/>
<path d="M5.15611 45.8083L4.36395 45.8347L4.52524 48.5215L5.3174 48.4952L5.15611 45.8083Z" fill="#4495E1"/>
<path d="M86.4277 40.2342L87.2198 40.2078L87.06 37.521L86.2678 37.5473L86.4277 40.2342Z" fill="#4495E1"/>
<path d="M86.7032 44.8394L87.4953 44.8131L87.334 42.1262L86.5419 42.1525L86.7032 44.8394Z" fill="#4495E1"/>
<path d="M86.1536 35.628L86.9458 35.6016L86.7859 32.9148L85.9938 32.9411L86.1536 35.628Z" fill="#4495E1"/>
<path d="M86.3963 26.3912L86.2364 23.7043L85.4443 23.7307L85.6041 26.4175L86.3963 26.3912Z" fill="#4495E1"/>
<path d="M85.8781 31.0227L86.6703 30.9964L86.509 28.3096L85.7169 28.3359L85.8781 31.0227Z" fill="#4495E1"/>
<path d="M86.9772 49.4444L87.7693 49.418L87.6109 46.7312L86.8187 46.7575L86.9772 49.4444Z" fill="#4495E1"/>
<path d="M57.9926 42.9259C57.5387 42.5723 56.9507 42.3956 56.3598 42.4257L39.1648 43.3046C38.5639 43.3359 38.0116 43.5704 37.6091 43.9678C37.208 44.3652 37.0067 44.8743 37.041 45.4009C37.0752 45.9287 37.3436 46.4139 37.796 46.7675C38.2142 47.0947 38.7423 47.2715 39.2947 47.2715C39.339 47.2715 39.3832 47.2702 39.4289 47.2677L56.6238 46.3888C57.2247 46.3575 57.7771 46.123 58.1796 45.7256C58.5807 45.3281 58.7819 44.8191 58.7477 44.2925C58.7134 43.7647 58.4451 43.2795 57.9926 42.9259ZM56.4069 43.1353C56.4354 43.1328 56.4639 43.1328 56.4925 43.1328C56.5603 43.1328 56.6267 43.1406 56.693 43.1491L55.371 45.7397L53.0027 45.8607L54.3383 43.2412L56.4069 43.1353ZM47.4048 46.1465L48.7404 43.5271L51.2164 43.4005L49.8808 46.0199L47.4048 46.1465ZM44.6786 46.286L45.9746 43.7446C45.9878 43.7195 45.9921 43.6935 45.9913 43.6675L48.2858 43.5503L46.9501 46.1697L44.6786 46.286ZM41.7476 46.4358L43.0832 43.8164L45.5592 43.6898L44.2236 46.3092L41.7476 46.4358ZM51.6717 43.3773L53.8834 43.2641L52.5688 45.8419C52.5617 45.8554 52.5609 45.8691 52.5581 45.8829L50.3361 45.9964L51.6717 43.3773ZM37.8488 45.3595C37.8274 45.0222 37.9559 44.6962 38.2142 44.4405C38.4726 44.1847 38.8266 44.0342 39.2119 44.0142L40.1265 43.9675L38.8383 46.4923C38.6549 46.4384 38.4836 46.3531 38.3341 46.2359C38.043 46.0089 37.8717 45.698 37.8488 45.3595ZM39.3804 46.5568C39.3365 46.559 39.2944 46.5534 39.2512 46.5521L40.5818 43.9443L42.6289 43.8396L41.2933 46.459L39.3804 46.5568ZM57.573 45.2517C57.3146 45.5074 56.9607 45.6579 56.5753 45.6779L55.8259 45.7162L57.0845 43.2503C57.2161 43.303 57.3417 43.3694 57.4531 43.4563C57.7442 43.6832 57.9155 43.9941 57.9384 44.3326C57.9598 44.6699 57.8313 44.9959 57.573 45.2517Z" fill="#4495E1"/>
<path d="M76.9346 45.9853L81.6904 45.742C82.7609 45.6869 83.5802 44.8769 83.5188 43.9366L82.6753 31.1995C82.6125 30.2604 81.7204 29.5445 80.6199 29.5934L75.8655 29.8367C75.3488 29.863 74.8735 30.0674 74.5267 30.4084C74.1813 30.7507 74.0072 31.1882 74.0371 31.6421L74.8807 44.3792C74.9406 45.2869 75.7984 45.989 76.8218 45.989C76.8575 45.989 76.8975 45.989 76.9346 45.9853ZM75.6885 44.3391L74.845 31.6007C74.8264 31.3362 74.9278 31.0804 75.1305 30.8811C75.3331 30.6804 75.61 30.5626 75.9126 30.5475L80.667 30.3043C80.6899 30.3031 80.7113 30.3031 80.7341 30.3031C81.3307 30.3031 81.8331 30.713 81.8674 31.2421L82.711 43.9792C82.7466 44.5284 82.2685 45.0023 81.6433 45.0336L76.8875 45.2769C76.2552 45.3095 75.7242 44.8882 75.6885 44.3391Z" fill="#4495E1"/>
<path d="M14.6478 40.6128L9.12549 46.0629L15.3315 50.9138L20.8523 45.4636L14.6478 40.6128ZM15.2644 49.9095L10.2688 46.004L14.7149 41.6171L19.7091 45.5213L15.2644 49.9095Z" fill="#4495E1"/>
<path d="M47.1549 56.1069C47.0593 54.6889 45.6962 53.6094 44.0562 53.6846L40.7434 53.8539C39.9641 53.894 39.2476 54.1999 38.7252 54.7152C38.2028 55.2293 37.9416 55.89 37.9858 56.5746L38.1785 59.4858C38.2699 60.8524 39.5659 61.9119 41.106 61.9119C41.1631 61.9119 41.2201 61.9106 41.2772 61.9081L44.59 61.7388C45.3694 61.6975 46.0859 61.3928 46.6083 60.8775C47.1307 60.3635 47.3919 59.7027 47.3476 59.0182L47.1549 56.1069ZM46.0045 60.4036C45.6277 60.7772 45.1082 60.9979 44.5444 61.0267L41.2316 61.196C40.0897 61.2762 39.0578 60.47 38.9892 59.4432L38.7966 56.5319C38.7637 56.0379 38.9536 55.559 39.3318 55.1866C39.7086 54.813 40.2282 54.5911 40.792 54.5635L44.1048 54.3942C44.1462 54.3917 44.189 54.3905 44.2289 54.3905C45.3437 54.3905 46.2814 55.1578 46.3471 56.147L46.5398 59.0583C46.5726 59.5523 46.3828 60.0312 46.0045 60.4036Z" fill="#4495E1"/>
<path d="M41.4372 33.272C42.6775 33.9327 44.0706 34.2725 45.4851 34.2725C46.1102 34.2725 46.7411 34.2048 47.3634 34.0719C49.3959 33.6343 51.113 32.5272 52.1978 30.955C53.2839 29.3828 53.6065 27.5347 53.1084 25.7493C52.6103 23.9639 51.3514 22.4557 49.5615 21.5028C47.7716 20.5499 45.6663 20.2653 43.6353 20.7041C41.6028 21.1417 39.8857 22.2475 38.8009 23.8198C37.7147 25.392 37.3922 27.2401 37.8903 29.0254C38.3884 30.8108 39.6473 32.3191 41.4372 33.272ZM39.4903 24.1884C40.4638 22.7779 42.0038 21.7861 43.8251 21.3937C44.3846 21.2721 44.9498 21.2132 45.5108 21.2132C46.7797 21.2132 48.0286 21.5178 49.1404 22.1109C50.7462 22.9659 51.8766 24.3175 52.3219 25.9186C52.7701 27.5196 52.4804 29.1771 51.5069 30.5876C50.5335 31.9981 48.9934 32.9899 47.1722 33.3823C45.3495 33.7735 43.4626 33.5202 41.8568 32.6651C40.2511 31.8101 39.1207 30.4585 38.6753 28.8574C38.2272 27.2564 38.5169 25.5989 39.4903 24.1884Z" fill="#4495E1"/>
<path d="M42.6318 28.0048C42.8188 28.6768 43.2941 29.2447 43.9692 29.6046C44.4359 29.8528 44.9597 29.9807 45.4936 29.9807C45.7291 29.9807 45.966 29.9556 46.2015 29.9055C47.783 29.5645 48.7536 28.1577 48.3668 26.7698C48.1798 26.0978 47.7045 25.5298 47.0294 25.17C46.3585 24.8114 45.5678 24.7023 44.797 24.8691C43.2156 25.2088 42.245 26.6156 42.6318 28.0048ZM44.9398 25.3856C45.1267 25.3455 45.3137 25.3267 45.4993 25.3267C46.5541 25.3267 47.5146 25.9573 47.7758 26.8952C48.0827 27.9985 47.3105 29.1169 46.0545 29.3864C44.807 29.656 43.5281 28.9802 43.2184 27.8769C42.9115 26.7736 43.6837 25.6552 44.9398 25.3856Z" fill="#4495E1"/>
<path d="M44.3817 24.5032C44.4146 24.6248 44.5387 24.7063 44.6758 24.7063C44.7 24.7063 44.7243 24.7038 44.7486 24.6987C44.9113 24.6636 45.0098 24.5195 44.9698 24.3765L44.7414 23.5578C44.7015 23.4149 44.5444 23.3271 44.3746 23.3622C44.2119 23.3973 44.1134 23.5415 44.1534 23.6844L44.3817 24.5032Z" fill="#4495E1"/>
<path d="M46.6155 30.2705C46.5755 30.1276 46.4171 30.0411 46.2487 30.075C46.086 30.1101 45.9875 30.2542 46.0274 30.3972L46.2558 31.2159C46.2886 31.3375 46.4128 31.419 46.5498 31.419C46.5727 31.419 46.5969 31.4165 46.6226 31.4115C46.7854 31.3764 46.8838 31.2322 46.8439 31.0893L46.6155 30.2705Z" fill="#4495E1"/>
<path d="M48.8535 26.9316C48.8777 26.9316 48.9006 26.9278 48.9262 26.9241L49.8583 26.7235C50.021 26.6884 50.1195 26.5442 50.0795 26.4012C50.0396 26.2583 49.8811 26.1731 49.7127 26.2057L48.7807 26.4063C48.6179 26.4414 48.5195 26.5856 48.5594 26.7285C48.5923 26.8501 48.7164 26.9316 48.8535 26.9316Z" fill="#4495E1"/>
<path d="M41.213 28.5765C41.2358 28.5765 41.2601 28.574 41.2858 28.569L42.2164 28.3684C42.3791 28.3333 42.4776 28.1891 42.4377 28.0462C42.3977 27.9032 42.2393 27.8167 42.0708 27.8506L41.1402 28.0512C40.9775 28.0863 40.879 28.2305 40.919 28.3734C40.9518 28.495 41.076 28.5765 41.213 28.5765Z" fill="#4495E1"/>
<path d="M48.1941 28.8198C48.107 28.9464 48.1513 29.1094 48.2955 29.1859L49.1162 29.6234C49.1647 29.6498 49.2189 29.6623 49.2732 29.6623C49.3745 29.6623 49.4758 29.6172 49.5329 29.5344C49.62 29.4078 49.5758 29.2448 49.4316 29.1683L48.6109 28.7308C48.471 28.6543 48.2826 28.6931 48.1941 28.8198Z" fill="#4495E1"/>
<path d="M41.567 25.6038L42.3877 26.0414C42.4362 26.0677 42.4905 26.0803 42.5447 26.0803C42.6461 26.0803 42.7474 26.0351 42.8045 25.9524C42.8915 25.8257 42.8473 25.6628 42.7031 25.5863L41.8824 25.1487C41.7411 25.0735 41.5542 25.1098 41.4657 25.2377C41.3786 25.3644 41.4228 25.5273 41.567 25.6038Z" fill="#4495E1"/>
<path d="M43.8664 29.7539C43.7251 29.6787 43.5381 29.7151 43.4496 29.8429L42.9515 30.5639C42.8644 30.6905 42.9087 30.8535 43.0528 30.93C43.1014 30.9563 43.1556 30.9688 43.2098 30.9688C43.3112 30.9688 43.4125 30.9237 43.4696 30.8409L43.9677 30.12C44.0548 29.9934 44.0106 29.8304 43.8664 29.7539Z" fill="#4495E1"/>
<path d="M47.1322 25.0196C47.1807 25.0459 47.2349 25.0585 47.2892 25.0585C47.392 25.0585 47.4919 25.0133 47.549 24.9306L48.0471 24.2096C48.1342 24.083 48.0899 23.92 47.9458 23.8435C47.8059 23.7671 47.6175 23.8059 47.529 23.9326L47.0308 24.6535C46.9438 24.7801 46.988 24.9431 47.1322 25.0196Z" fill="#4495E1"/>
</svg>
