<svg width="70" height="70" viewBox="0 0 70 70" fill="none" xmlns="http://www.w3.org/2000/svg">
<g clip-path="url(#clip0_54_6112)">
<path d="M69.9936 7.1566C70.232 0.856529 63.6633 -3.55494 55.659 3.92837C52.1598 7.18503 48.081 12.4637 46.4259 16.7538C43.2893 15.3453 39.9367 15.2807 37.9505 17.4329C36.4969 19.0055 36.2731 21.5896 37.3764 23.7636C24.3801 26.784 21.1685 42.3106 9.58663 47.6384C9.31806 47.7609 9.19497 48.0671 9.30576 48.3372C10.7392 51.8214 13.0903 54.5247 16.9319 54.6461C16.9352 54.6515 16.9364 54.6581 16.9397 54.6636C18.0923 56.1519 20.1938 57.263 22.8459 57.2116C24.7359 58.9274 27.1821 60.068 29.7369 60.4464C29.7939 60.5 29.8611 60.5437 29.9405 60.5699C32.5031 61.4175 35.4315 61.9183 38.3869 61.9183C48.9348 61.9183 55.2673 55.8687 58.0212 46.1282C58.8292 43.2707 59.2689 40.1048 59.3853 36.4928C65.1449 36.6262 67.3091 31.4908 64.0673 27.4216C63.1016 26.2044 61.8449 25.3143 60.6476 24.5881C63.7137 21.8192 69.8112 11.9803 69.9936 7.1566ZM56.4311 4.72012C63.6163 -2.00316 69.0794 1.69639 68.8757 7.11614C68.8556 7.65089 68.7817 8.18018 68.6698 8.7051L67.7153 7.77228L68.7303 6.78041C68.8399 6.67324 68.8399 6.50045 68.7303 6.39328C68.6206 6.28611 68.4438 6.28611 68.3341 6.39328L67.3192 7.38515L67.2174 7.28564C67.1077 7.17847 66.9309 7.17847 66.8212 7.28564C66.7116 7.39281 66.7116 7.56559 66.8212 7.67276L66.923 7.77228L66.8212 7.87179C66.7116 7.97896 66.7116 8.15175 66.8212 8.25782C66.9309 8.365 67.1077 8.365 67.2174 8.25782L67.3192 8.15831L68.3722 9.18736C68.4169 9.2311 68.4774 9.24641 68.5356 9.25407C67.7668 12.1531 65.2333 16.5427 63.5861 19.0733C63.6085 18.9836 63.6007 18.8906 63.5291 18.8206L61.968 17.294L63.6208 15.6788L64.5731 16.6094C64.6828 16.7166 64.8596 16.7166 64.9692 16.6094C65.0789 16.5023 65.0789 16.3295 64.9692 16.2234L64.017 15.2928L65.4303 13.9116C65.4851 13.858 65.512 13.7869 65.512 13.7169L65.9808 14.1751C66.0905 14.2823 66.2673 14.2823 66.377 14.1751C66.4866 14.068 66.4866 13.8952 66.377 13.7891L64.92 12.3653C64.8103 12.2581 64.6335 12.2581 64.5239 12.3653C64.4142 12.4725 64.4142 12.6452 64.5239 12.7524L65.2344 13.4468C65.1628 13.4468 65.0901 13.472 65.0353 13.5267L63.6219 14.9078L63.4194 14.7099C63.3097 14.6027 63.1329 14.6027 63.0233 14.7099C62.9136 14.8171 62.9136 14.9899 63.0233 15.0959L63.2258 15.2939L61.573 16.9091L61.5204 16.8566C61.4108 16.7494 61.2339 16.7494 61.1243 16.8566C61.0146 16.9638 61.0146 17.1365 61.1243 17.2437L61.1959 17.3137C61.1366 17.4176 61.1332 17.5455 61.2239 17.6341C61.3391 17.7468 61.441 17.7227 61.5517 17.6615L63.1318 19.2056C63.2258 19.2974 63.3444 19.316 63.4821 19.2242C62.5947 20.578 61.5495 22.1298 60.4126 23.2966L60.0176 22.9106L62.0117 20.9619C62.0139 20.9597 62.0184 20.9608 62.0206 20.9586C62.0229 20.9564 62.0217 20.952 62.024 20.9498L62.6708 20.3177C62.7804 20.2106 62.7804 20.0378 62.6708 19.9306C62.5611 19.8234 62.3843 19.8234 62.2746 19.9306L61.8192 20.3757L60.8658 19.444L60.9173 19.3926C61.0269 19.2854 61.0269 19.1126 60.9173 19.0055C60.8076 18.8983 60.6308 18.8983 60.5211 19.0055L60.4697 19.0558L60.0176 18.614C59.9079 18.5068 59.7311 18.5068 59.6214 18.614C59.5118 18.7211 59.5118 18.8939 59.6214 19L60.0735 19.4418L58.2708 21.2046L58.0179 20.9575C57.9082 20.8503 57.7314 20.8503 57.6229 20.9575C57.5132 21.0646 57.5132 21.2374 57.6229 21.3446L57.8746 21.5918L57.323 22.1309C57.2133 22.2381 57.2133 22.4108 57.323 22.518C57.4326 22.6252 57.6094 22.6252 57.7191 22.518L58.2708 21.9789L59.2242 22.9106L58.6669 23.4552C57.9395 23.0506 57.2111 22.647 56.4837 22.2424C56.5676 22.1353 56.571 21.9854 56.4703 21.887L56.0171 21.4441L58.2193 19.292C58.329 19.1848 58.329 19.012 58.2193 18.9048C58.1096 18.7977 57.9328 18.7977 57.8232 18.9048L55.6209 21.057L54.8197 20.274C54.7101 20.1668 54.5332 20.1668 54.4236 20.274C54.3139 20.3812 54.3139 20.554 54.4236 20.6611L55.2248 21.4441L55.1599 21.5075C48.1425 17.6101 48.1895 17.6254 47.4196 17.2306C48.9974 13.0739 53.0808 7.83899 56.4311 4.72012ZM59.1749 23.7362L59.6237 23.2977L60.0109 23.6761C59.8934 23.7855 59.7815 23.9036 59.6595 24.0064L59.1749 23.7362ZM59.6237 22.5246L58.6703 21.5928L60.473 19.83L61.4264 20.7628L59.6237 22.5246ZM36.1253 59.7771C36.1377 59.8219 36.1432 59.8701 36.1802 59.905L36.385 60.1052L35.7863 60.6902C35.1082 60.6213 34.439 60.5251 33.7799 60.4059C34.5789 60.2692 35.3633 60.0538 36.1253 59.7771ZM36.6356 59.577C36.8102 59.5059 36.9825 59.4315 37.1526 59.3528L36.7789 59.718L36.6356 59.577ZM36.78 60.4912L37.0866 60.7908C36.8952 60.781 36.705 60.7657 36.5136 60.7515L36.78 60.4912ZM37.6181 60.8072C37.6674 60.7055 37.6685 60.5874 37.5834 60.5032L37.175 60.1041L37.9874 59.3101L39.2015 60.4967L38.877 60.8138C38.4574 60.8236 38.0378 60.8204 37.6181 60.8072ZM40.8722 59.6393L41.7384 60.4857C41.7361 60.5196 41.7563 60.5481 41.7674 60.5809C41.0882 60.6793 40.4056 60.7569 39.7185 60.7941C39.7633 60.7821 39.8114 60.7766 39.8461 60.7427C39.8953 60.6957 39.9143 60.6323 39.9188 60.5699L40.8722 59.6393ZM42.0461 58.4911L42.8585 59.285L42.0797 60.0461L41.2672 59.2522L42.0461 58.4911ZM47.6501 55.3755C47.6513 55.3766 47.6513 55.3788 47.6524 55.3798L48.0586 55.7779L46.7807 57.0268C46.671 57.1339 46.671 57.3067 46.7807 57.4139C46.8903 57.5211 47.0671 57.5211 47.1768 57.4139L48.4547 56.165L49.7237 57.4051C49.1328 57.8568 48.5129 58.2614 47.8639 58.6168L46.0992 56.8923L47.6501 55.3755ZM47.3458 58.8837C46.4069 59.3528 45.4199 59.7279 44.4005 60.0188L43.6508 59.2861L45.7042 57.2794L47.3458 58.8837ZM43.7873 60.1937C43.3609 60.2998 42.9301 60.3939 42.4948 60.4726C42.487 60.4617 42.4903 60.4475 42.4803 60.4376L42.4758 60.4332L43.2546 59.6721L43.7873 60.1937ZM50.159 57.0563L48.8497 55.7779L50.2653 54.3945L51.2444 55.3503C51.3541 55.4575 51.5309 55.4575 51.6406 55.3503C51.7502 55.2432 51.7502 55.0704 51.6406 54.9632L50.6614 54.0074L52.4798 52.2304L52.9834 52.7236C53.0931 52.8307 53.2699 52.8307 53.3784 52.7236C53.4881 52.6164 53.4881 52.4436 53.3784 52.3364L52.8749 51.8432L53.845 50.8951C53.9547 50.7879 53.9547 50.6152 53.845 50.508C53.7354 50.4008 53.5586 50.4008 53.4489 50.508L52.4787 51.4561L52.1363 51.1215L54.4918 48.8195L55.4811 49.7862C54.2423 52.4819 52.4306 55.1666 50.159 57.0563ZM56.1659 46.7975C56.0562 46.6903 55.8794 46.6903 55.7709 46.7975L54.493 48.0474L53.647 47.2207L55.1297 45.7717L56.5329 47.142C56.2901 47.8659 56.0182 48.5669 55.7228 49.2493L54.888 48.4335L56.1659 47.1835C56.2756 47.0774 56.2756 46.9047 56.1659 46.7975ZM57.9317 40.8517L57.1697 40.107L58.1052 39.1928C58.0559 39.756 58 40.3126 57.9317 40.8517ZM57.5636 41.2662L57.8377 41.5341C57.756 42.094 57.6631 42.6408 57.5591 43.1767L56.665 42.304L57.4953 41.4926C57.5591 41.4291 57.5747 41.3471 57.5636 41.2662ZM58.1399 38.8593C58.1275 38.8396 58.1309 38.8144 58.1141 38.7969C58.0044 38.6897 57.8276 38.6897 57.718 38.7969L56.5766 39.9124H56.5755L56.4423 40.0436C56.3326 40.1508 56.3326 40.3235 56.4423 40.4307C56.5631 40.5488 56.646 40.5116 56.7478 40.4668L57.3319 41.0376C57.2491 41.0267 57.1641 41.042 57.1003 41.1044L56.2297 41.9552C56.1379 41.9344 56.0428 41.9409 55.9723 42.0109C55.9007 42.0809 55.894 42.1739 55.9152 42.2624L54.9663 43.1909C54.8566 43.2981 54.8566 43.4708 54.9663 43.578C55.076 43.6852 55.2528 43.6852 55.3613 43.578L56.2711 42.6889L57.4326 43.8241C57.286 44.5097 57.1283 45.1845 56.9436 45.8352C56.8754 46.0779 56.7937 46.3109 56.7198 46.5493L55.5258 45.3835L56.1749 44.7492C56.2845 44.6421 56.2845 44.4693 56.1749 44.3621C56.0652 44.2549 55.8884 44.2549 55.7787 44.3621L55.0133 45.1101C54.973 45.1232 54.9305 45.1254 54.898 45.156C54.8667 45.1867 54.8645 45.2293 54.851 45.2687L53.0875 46.9921C52.9778 47.0993 52.9778 47.2721 53.0875 47.3793C53.0919 47.3836 53.0975 47.3815 53.102 47.3847C53.1143 47.4285 53.1199 47.4744 53.1546 47.5094L54.0979 48.4313L51.7424 50.7333L51.5376 50.5331C51.428 50.426 51.2512 50.426 51.1415 50.5331C51.0318 50.6403 51.0318 50.8131 51.1415 50.9203L52.0848 51.841L50.2664 53.6181L49.5916 52.9598C49.482 52.8526 49.3052 52.8526 49.1955 52.9598C49.0858 53.0669 49.0858 53.2397 49.1955 53.3469L49.8703 54.0052L48.4547 55.3886L48.0485 54.9916C48.0474 54.9905 48.0452 54.9905 48.0429 54.9894L48.8811 54.1704C48.9907 54.0632 48.9907 53.8904 48.8811 53.7832C48.7714 53.6761 48.5946 53.6761 48.4849 53.7832L45.7019 56.5029L45.6314 56.434C45.5218 56.3269 45.345 56.3269 45.2353 56.434C45.1256 56.5412 45.1256 56.714 45.2353 56.8212L45.3058 56.8901L43.2524 58.8968L42.44 58.1028L44.4665 56.1235C44.5762 56.0163 44.5762 55.8435 44.4665 55.7364C44.3569 55.6292 44.1801 55.6292 44.0704 55.7364L40.87 58.864L40.4638 58.467C40.3541 58.3598 40.1773 58.3598 40.0677 58.467C39.958 58.5742 39.958 58.747 40.0677 58.853L40.4739 59.25L39.5943 60.1095L38.3802 58.923L39.0326 58.2855C39.2642 58.1269 39.4947 57.9672 39.7152 57.7945C39.9558 57.6053 39.9927 57.2619 39.7991 57.0257C39.6055 56.7916 39.253 56.7523 39.0124 56.9447C34.8329 60.2397 28.8025 60.407 24.3756 57.0519C27.3164 56.539 29.588 55.0485 32.1841 53.3053C32.4393 53.1347 32.5031 52.7935 32.3285 52.5453C32.1539 52.2971 31.8048 52.2347 31.5508 52.4042C29.5209 53.7657 22.8537 58.6398 18.3967 54.5717C20.9973 54.2053 23.1615 52.8089 25.1366 51.1127C25.3693 50.9126 25.3917 50.567 25.1869 50.3407C24.9832 50.1143 24.6296 50.0924 24.3969 50.2904C18.2423 55.5756 13.1239 54.2119 10.5423 48.3985C22.038 42.7502 25.5707 27.3166 37.9605 24.7456C40.381 28.2363 46.7001 32.4291 52.6197 34.7485C52.632 34.7693 52.6287 34.7955 52.6466 34.813C52.7014 34.8666 52.773 34.8929 52.8446 34.8929C52.8749 34.8929 52.8984 34.8688 52.9274 34.859C53.6425 35.1324 54.3576 35.4047 55.086 35.6387C56.0518 35.9536 57.1327 36.2587 58.2663 36.4086C58.2428 37.2484 58.2025 38.0697 58.1399 38.8593ZM55.8906 34.7365C55.7418 34.6906 55.5851 34.6468 55.4408 34.5998C55.1185 34.4959 54.804 34.3658 54.484 34.2542C54.4706 34.228 54.4728 34.1963 54.4493 34.1744L54.0733 33.8069L54.8164 33.0808L56.1995 34.4336L55.8906 34.7365ZM56.5967 34.8207L56.769 34.9891C56.6773 34.965 56.5844 34.9454 56.4949 34.9202L56.5967 34.8207ZM57.2032 35.0919C57.2178 35.0821 57.2368 35.0853 57.2502 35.0733C57.3599 34.9661 57.3599 34.7934 57.2502 34.6862L56.9917 34.4336L58.0906 33.3597L58.8101 34.0628L58.2484 34.6118C58.1387 34.719 58.1387 34.8918 58.2484 34.9989C58.3581 35.1061 58.5349 35.1061 58.6445 34.9989L59.2063 34.45L60.1675 35.3893C59.1615 35.4626 58.1589 35.315 57.2032 35.0919ZM60.7158 34.9355C60.6722 34.9771 60.6599 35.0339 60.6509 35.0875L59.6013 34.0618L60.8904 32.802L61.8942 33.7829L60.7158 34.9355ZM62.2892 34.1711L62.6931 34.5659C62.2623 34.8404 61.7711 35.0558 61.2373 35.2002L62.2892 34.1711ZM64.3146 30.4628L63.8704 30.0287L64.1188 29.7859C64.1982 30.0079 64.2643 30.2332 64.3146 30.4628ZM63.1844 28.0919C63.4586 28.4364 63.707 28.8399 63.9106 29.2763C63.8748 29.2894 63.8357 29.2905 63.8066 29.3178L63.4742 29.6426L62.2959 28.4911C62.1862 28.3839 62.0094 28.3839 61.8998 28.4911C61.7901 28.5983 61.7901 28.7711 61.8998 28.8782L63.0781 30.0298L62.5163 30.5787C62.4067 30.6859 62.4067 30.8587 62.5163 30.9659C62.626 31.073 62.8028 31.073 62.9125 30.9659L63.4742 30.4169L63.9274 30.8598C64.0371 30.9669 64.2139 30.9669 64.3236 30.8598C64.3515 30.8324 64.3527 30.7931 64.3661 30.7592C64.5865 32.1228 64.2508 33.317 63.1452 34.2367L62.6831 33.7851L63.6398 32.8501L63.6633 32.873C63.773 32.9802 63.9498 32.9802 64.0595 32.873C64.1691 32.7659 64.1691 32.5931 64.0595 32.4859L63.9576 32.3864C63.9509 32.3273 63.9341 32.2672 63.8871 32.2213C63.8401 32.1753 63.7786 32.1589 63.7182 32.1524L61.8684 30.3458C61.7588 30.2386 61.582 30.2386 61.4734 30.3458C61.3638 30.453 61.3638 30.6257 61.4734 30.7329L63.2448 32.463L62.2881 33.398L61.2843 32.417L61.7162 31.9949C61.8259 31.8877 61.8259 31.7149 61.7162 31.6078C61.6066 31.5006 61.4298 31.5006 61.3201 31.6078L60.8882 32.0299L60.1608 31.3191C60.0511 31.2119 59.8743 31.2119 59.7647 31.3191C59.655 31.4262 59.655 31.599 59.7647 31.7062L60.492 32.417L59.2029 33.6768L58.4834 32.9736L59.5588 31.9216C59.6684 31.8145 59.6684 31.6417 59.5588 31.5345C59.4491 31.4273 59.2723 31.4273 59.1638 31.5345L58.0873 32.5865L57.408 31.9227C57.2983 31.8156 57.1215 31.8156 57.0119 31.9227C56.9022 32.0299 56.9022 32.2027 57.0119 32.3099L57.6911 32.9736L56.5922 34.0475L55.2091 32.6959L57.1417 30.8073C57.2513 30.7001 57.2513 30.5273 57.1417 30.4202C57.032 30.313 56.8552 30.313 56.7467 30.4202L54.8141 32.3088L54.7985 32.2934C54.6888 32.1863 54.512 32.1863 54.4034 32.2934C54.2938 32.4006 54.2938 32.5734 54.4034 32.6806L54.4191 32.6959L53.6761 33.422L52.8536 32.6182C52.7439 32.5111 52.5671 32.5111 52.4575 32.6182C52.3478 32.7254 52.3478 32.8982 52.4575 33.0054L53.2799 33.8091L53.2699 33.819C47.4868 31.5936 40.4078 27.0815 38.4238 23.3907C37.457 21.5874 37.6024 19.4396 38.7774 18.1667C40.043 16.7964 42.619 16.1009 46.4785 17.9884C47.1298 18.311 47.7721 18.6588 48.41 19.0186C60.2425 25.5756 61.639 26.1443 63.1844 28.0919Z" fill="#4495E1"/>
<path d="M8.12627 65.851C8.67124 68.2055 10.8153 70 13.5927 70C14.9042 70 16.2157 69.5845 17.2284 68.7479C18.8588 67.4017 19.5783 65.1577 19.0199 63.1619C17.1299 56.4233 6.63909 59.435 8.12627 65.851ZM9.21844 65.6093C8.12739 60.9015 15.4984 58.2157 17.704 62.848C17.6928 62.8557 17.6771 62.8535 17.6671 62.8634L16.6868 63.8202L16.3556 63.4965C16.2459 63.3894 16.0691 63.3894 15.9594 63.4965C15.8498 63.6037 15.8498 63.7765 15.9594 63.8837L16.8893 64.7924C16.8793 64.8001 16.8658 64.7968 16.8569 64.8055L15.6875 65.9483L15.4145 65.6815C15.3048 65.5743 15.128 65.5743 15.0183 65.6815C14.9087 65.7887 14.9087 65.9614 15.0183 66.0686L15.2914 66.3354L14.4219 67.1852L13.7874 66.5662L15.1649 65.22C15.2746 65.1128 15.2746 64.9401 15.1649 64.8329C15.0553 64.7257 14.8784 64.7257 14.7688 64.8329L13.3588 66.2119C13.2615 66.1791 13.1552 66.1813 13.0768 66.2578C12.9985 66.3344 12.9963 66.4382 13.0298 66.5334L12.3931 67.1556L11.9444 66.7171C11.8347 66.6099 11.6579 66.6099 11.5482 66.7171C11.4386 66.8243 11.4386 66.9971 11.5482 67.1042L11.997 67.5428L11.4889 68.0392C11.3826 68.1431 11.3837 68.3072 11.4845 68.4154C10.2323 67.8074 9.47693 66.727 9.21844 65.6093ZM13.9015 68.0786C14.0112 68.1858 14.188 68.1858 14.2966 68.0786L14.4219 67.9561L15.1358 68.6538C14.7084 68.7938 14.2574 68.8605 13.8031 68.8791C13.8892 68.7719 13.8926 68.6199 13.7908 68.5204L12.7881 67.5406L13.3924 66.95L14.0258 67.569L13.9004 67.6915C13.7919 67.7986 13.7919 67.9714 13.9015 68.0786ZM13.3734 68.8846C12.7758 68.8594 12.1917 68.7227 11.6523 68.4898C11.6657 68.492 11.6758 68.5051 11.6892 68.5051C11.7609 68.5051 11.8325 68.4788 11.8873 68.4253L12.3953 67.9288L13.3734 68.8846ZM15.6897 68.4198L14.8191 67.569L15.6886 66.7204C15.8005 66.8297 16.5928 67.6215 16.7271 67.7013C16.4473 67.9692 16.2862 68.1311 15.6897 68.4198ZM17.0762 67.3229C17.0684 67.3131 17.0717 67.2989 17.0628 67.2901L16.0836 66.3333L17.253 65.1905C17.262 65.1817 17.2586 65.1675 17.2664 65.1588L17.5585 65.4442C17.6682 65.5514 17.845 65.5514 17.9546 65.4442C17.9893 65.4103 17.9927 65.3655 18.0061 65.3228C17.8685 66.05 17.5451 66.7444 17.0762 67.3229ZM18.0229 65.2211C18.0162 65.162 17.9994 65.103 17.9535 65.0582L17.0829 64.2074L17.9177 63.3916C17.9233 63.4112 17.9334 63.432 17.9401 63.4517C18.1001 64.0225 18.1203 64.6295 18.0229 65.2211Z" fill="#4495E1"/>
<path d="M20.3326 65.6608C20.7377 67.1251 22.0995 68.2547 23.6438 68.4089C26.8543 68.7446 29.2255 65.1041 27.0132 62.1548C24.9989 59.4722 19.1632 61.4308 20.3326 65.6608ZM22.3659 66.7467L22.8045 66.318L23.7937 67.2847C23.8195 67.3099 23.8553 67.3088 23.8877 67.323C23.8452 67.3208 23.8016 67.3252 23.759 67.3219C23.2521 67.2705 22.7676 67.0583 22.3659 66.7467ZM24.0892 67.3252C24.1227 67.3121 24.1608 67.3121 24.1888 67.2847C24.2201 67.2541 24.2234 67.2114 24.2357 67.1721C24.3969 67.159 24.5591 66.9577 24.6934 66.8254C24.7169 66.832 24.7371 66.8528 24.7606 66.8528C24.8322 66.8528 24.9038 66.8265 24.9586 66.7729C25.0325 66.7018 25.0381 66.6045 25.0124 66.5138L25.8527 65.6925C25.9624 65.5853 25.9624 65.4125 25.8527 65.3054C25.7431 65.1982 25.5663 65.1982 25.4577 65.3054L24.6554 66.0894L24.0589 65.5066C23.9493 65.3994 23.7725 65.3994 23.6628 65.5066C23.5531 65.6137 23.5531 65.7865 23.6628 65.8937L24.2592 66.4766L24.0153 66.7139C24.0119 66.7172 24.0131 66.7215 24.0108 66.7248L23.1973 65.9298L24.257 64.8942C24.3667 64.787 24.3667 64.6142 24.257 64.507C24.1473 64.3999 23.9705 64.3999 23.8609 64.507L22.8012 65.5427L22.7631 65.5055C22.6535 65.3983 22.4766 65.3983 22.367 65.5055C22.2573 65.6126 22.2573 65.7854 22.367 65.8926L22.405 65.9298L21.9585 66.3661C21.7056 66.0763 21.5109 65.7384 21.4102 65.3732C20.5654 62.3243 24.9273 60.9311 26.2433 63.0417L25.3302 63.9351L25.0571 63.6683C24.9474 63.5611 24.7706 63.5611 24.6621 63.6683C24.5524 63.7754 24.5524 63.9482 24.6621 64.0554L26.0161 65.3786C26.2768 65.6334 26.6752 65.2496 26.4111 64.9915L25.7263 64.3211L26.5253 63.5403C27.2884 65.4541 25.9781 67.2552 24.0892 67.3252Z" fill="#4495E1"/>
<path d="M0.153353 56.5065C1.06424 59.8003 5.7037 60.2618 7.27593 57.2151C7.95965 55.8897 7.79067 54.2756 6.83503 53.0005C4.82191 50.3212 -1.01602 52.2754 0.153353 56.5065ZM3.57868 58.1687C3.09078 58.1195 2.62639 57.9194 2.23249 57.6274L2.63087 57.2381L3.45782 58.0451C3.51266 58.0987 3.58427 58.1249 3.65589 58.1249C3.6682 58.1249 3.67715 58.1129 3.68946 58.1107C3.72863 58.1304 3.76444 58.1588 3.80808 58.1588C3.87969 58.1588 3.95131 58.1326 4.00614 58.079L4.51418 57.5825L4.89017 57.95C4.4739 58.1228 4.02069 58.2081 3.57868 58.1687ZM3.5507 56.641L4.11805 57.1954L3.74989 57.5563L3.027 56.8498L3.49028 56.3971C3.47237 56.4846 3.48244 56.5743 3.5507 56.641ZM6.27664 56.7219C6.07521 57.1112 5.75853 57.4371 5.3859 57.6842C5.37695 57.6722 5.3803 57.6547 5.36911 57.6438L4.90919 57.1954L5.46087 56.6563C5.59292 56.7667 5.74175 56.7416 5.83686 56.6486C5.94093 56.5469 5.93869 56.3883 5.8447 56.2812C6.12893 56.0034 5.71937 55.6305 5.46311 55.8809L5.45528 55.8886C5.16769 55.6075 4.82415 55.1264 4.55223 55.3921C4.44256 55.4993 4.44256 55.6721 4.55223 55.7792L5.06026 56.2757L4.5153 56.8094L3.94684 56.2549C3.87858 56.1871 3.78682 56.1784 3.69729 56.1959L4.15274 55.7508C4.2624 55.6436 4.2624 55.4708 4.15274 55.3637C4.04307 55.2565 3.86627 55.2565 3.75772 55.3637L2.63199 56.4638L2.47644 56.3118C2.36678 56.2046 2.18997 56.2046 2.08031 56.3118C1.87441 56.513 2.05121 56.6705 2.23585 56.8498L1.81734 57.2588C0.659151 55.9848 1.13585 54.1815 2.25488 53.3854C3.23738 52.6844 5.21357 52.6932 5.93086 53.6468C5.97338 53.7036 5.99353 53.7682 6.03269 53.8272L5.74846 54.1072L5.59292 53.9552C5.48325 53.848 5.30645 53.848 5.19678 53.9552C5.08712 54.0623 5.08712 54.2351 5.19678 54.3423L5.35233 54.4943L5.0211 54.818C4.75589 55.0772 5.15986 55.4555 5.41611 55.2051L5.74734 54.8803C5.95324 55.0815 6.139 55.3068 6.35833 55.0914C6.46799 54.9842 6.46799 54.8114 6.35833 54.7042L6.14236 54.4932L6.31245 54.327C6.64927 55.1176 6.65039 55.9979 6.27664 56.7219Z" fill="#4495E1"/>
<path d="M35.9173 29.1463C35.2951 29.2042 34.683 29.3245 34.0888 29.5006L33.4688 28.3873C33.3939 28.2528 33.2249 28.2069 33.0895 28.2769C32.9541 28.349 32.9037 28.5153 32.9776 28.6476L33.5561 29.6854C32.7672 29.9697 32.0197 30.3514 31.3337 30.8249L30.8604 30.5187C30.7317 30.4356 30.5594 30.4684 30.4721 30.5952C30.3871 30.721 30.4229 30.8905 30.5504 30.9736L30.8548 31.1705C30.3457 31.5707 29.8745 32.0191 29.4583 32.5177C29.2915 32.7168 29.1427 32.9267 28.9928 33.1367C28.9592 33.0853 28.9144 33.0405 28.8864 32.9858C28.8171 32.8513 28.6481 32.7999 28.5105 32.8666C28.3728 32.9355 28.318 33.0995 28.3885 33.234C28.4612 33.374 28.5619 33.4987 28.6615 33.6223C28.2128 34.3189 27.8234 35.0483 27.453 35.7744L26.6361 35.2309C26.5096 35.1478 26.3351 35.1784 26.2478 35.3031C26.1605 35.4277 26.1941 35.5983 26.3217 35.6836L27.1978 36.2665C26.7111 37.2245 26.4369 37.7571 25.8405 38.6877L25.0661 38.1354C24.9408 38.0468 24.7662 38.072 24.6745 38.1956C24.5838 38.317 24.6107 38.4887 24.736 38.5783L25.5305 39.1448C24.9934 39.9376 24.4059 40.6933 23.7703 41.4085C23.4446 41.0881 23.1481 40.737 22.9299 40.339C22.8572 40.2056 22.6871 40.1585 22.5517 40.2263C22.4151 40.2974 22.3648 40.4636 22.4375 40.5971C22.686 41.0498 23.0261 41.45 23.3999 41.8131C22.7979 42.4572 22.1567 43.0642 21.4796 43.6328C21.3174 43.4119 21.1753 43.1757 21.0824 42.922C21.0298 42.7798 20.8687 42.7077 20.7243 42.758C20.5788 42.8094 20.5039 42.9657 20.5553 43.1079C20.6717 43.425 20.8485 43.7181 21.0555 43.9904C20.2554 44.6291 19.4128 45.2185 18.5254 45.7456C18.3934 45.8243 18.352 45.9927 18.4314 46.1218C18.512 46.2508 18.6832 46.2924 18.8164 46.2136C19.7306 45.6701 20.599 45.0621 21.4226 44.4038C21.6464 44.6214 21.8892 44.8193 22.1634 44.9713C22.301 45.0457 22.4689 44.9976 22.5438 44.8675C22.6199 44.7362 22.5729 44.57 22.4386 44.4945C22.2216 44.3743 22.0268 44.2179 21.8456 44.0473C22.5349 43.4677 23.1884 42.8498 23.8016 42.1948C23.8128 42.2035 23.8206 42.2155 23.8318 42.2232C23.9717 42.3315 24.1284 42.4354 24.3197 42.4758C24.5939 42.5349 24.8647 42.4255 24.9956 42.2254C25.0784 42.0974 25.0404 41.9268 24.9094 41.8459C24.6767 41.7059 24.5088 41.9618 24.4361 41.9411C24.3522 41.9236 24.2582 41.8569 24.1787 41.7945C24.1765 41.7934 24.1754 41.7912 24.1731 41.7891C24.8278 41.0553 25.432 40.2799 25.9837 39.4663L26.4235 39.7802C26.5477 39.8687 26.7234 39.8425 26.8151 39.72C26.9058 39.5986 26.8789 39.4258 26.7536 39.3373L26.2948 39.0103C26.9047 38.0611 27.1923 37.5023 27.6634 36.576L28.2922 36.9948C28.4187 37.079 28.5933 37.0484 28.6805 36.9227C28.7678 36.798 28.7343 36.6274 28.6067 36.5421L27.9185 36.0839C28.2732 35.3862 28.6459 34.6863 29.0666 34.0192C29.4583 34.3287 29.9294 34.5441 30.4285 34.5912C30.4374 34.5923 30.4464 34.5923 30.4553 34.5923C30.5986 34.5923 30.7194 34.4862 30.734 34.344C30.7485 34.1931 30.6355 34.0597 30.4811 34.0455C30.0693 34.0072 29.6832 33.8224 29.3676 33.5577C29.5332 33.3193 29.7033 33.0853 29.8891 32.8633C30.3199 32.3493 30.8145 31.8933 31.3494 31.4909L33.6792 32.9989C33.809 33.0831 33.9825 33.047 34.0675 32.9224C34.1526 32.7977 34.1179 32.6271 33.9892 32.544L31.8284 31.1453C32.4483 30.7385 33.1219 30.4159 33.8258 30.1698L34.3171 31.0513C34.3909 31.1847 34.561 31.2328 34.6964 31.1617C34.8318 31.0895 34.8822 30.9233 34.8083 30.791L34.3641 29.9938C34.8878 29.8462 35.4238 29.7401 35.9699 29.6887C36.1232 29.6734 36.2362 29.54 36.2216 29.3912C36.2082 29.2403 36.0728 29.132 35.9173 29.1463Z" fill="#4495E1"/>
<path d="M38.7451 33.0273C38.5907 33.0273 38.4653 33.1498 38.4653 33.3007V33.3631C38.4653 33.514 38.5907 33.6058 38.7451 33.6058C38.8995 33.6058 39.0248 33.4517 39.0248 33.3018C39.0248 33.1509 38.8995 33.0273 38.7451 33.0273Z" fill="#4495E1"/>
<path d="M65.3185 12.1645L66.6199 10.8927L66.7866 11.0557C66.8963 11.1628 67.0731 11.1628 67.1828 11.0557C67.2924 10.9485 67.2924 10.7757 67.1828 10.6685L67.016 10.5056L67.8799 9.66135C67.9896 9.55418 67.9896 9.3814 67.8799 9.27423C67.7702 9.16706 67.5934 9.16706 67.4838 9.27423L66.6199 10.1185L65.9183 9.43389C65.8086 9.32672 65.6318 9.32672 65.5221 9.43389C65.4125 9.54106 65.4125 9.71384 65.5221 9.82101L66.2238 10.5067L64.9223 11.7785C64.8127 11.8857 64.8127 12.0585 64.9223 12.1645C65.032 12.2717 65.2088 12.2717 65.3185 12.1645Z" fill="#4495E1"/>
<path d="M52.7697 15.1449C53.0987 14.3914 53.4344 13.6303 53.788 12.8779C53.9424 12.9501 54.1013 13.0113 54.2658 13.0539C54.4147 13.0933 54.5691 13.0069 54.6083 12.8615C54.6486 12.7149 54.5601 12.5651 54.4113 12.5257C54.2782 12.4908 54.1495 12.4415 54.0253 12.3825C54.38 11.6542 54.7571 10.9368 55.1779 10.2467L55.5908 10.5322C55.715 10.6186 55.8907 10.5912 55.9813 10.4665C56.0708 10.343 56.0406 10.1724 55.9142 10.0849L55.4777 9.78307C55.819 9.25706 56.1872 8.75073 56.5901 8.26738C56.7187 8.35267 56.8374 8.45219 56.9784 8.5189C57.1182 8.58342 57.285 8.52655 57.351 8.39095C57.4181 8.25535 57.3599 8.0924 57.2201 8.0257C57.1238 7.98086 57.0421 7.90868 56.9515 7.85072C57.4002 7.35643 57.7639 6.98352 58.5909 6.34269L58.9478 6.65764C59.0642 6.75934 59.241 6.7484 59.344 6.63795C59.4469 6.52641 59.438 6.35253 59.3238 6.25192L59.0553 6.01462C59.4894 5.70842 59.9404 5.42956 60.4093 5.17803L60.811 5.63733C60.9106 5.75325 61.0874 5.76528 61.206 5.66795C61.3235 5.56953 61.3369 5.39675 61.2362 5.28192L60.9128 4.9123C61.5272 4.61812 62.1583 4.35457 62.8174 4.15882C62.9651 4.11508 63.049 3.96198 63.0043 3.81654C62.9595 3.67328 62.804 3.59345 62.6552 3.635C61.9222 3.85262 61.2228 4.15226 60.5424 4.48799L60.1351 4.02213C60.0344 3.9073 59.8565 3.89527 59.7401 3.99151C59.6226 4.08993 59.6081 4.26271 59.7088 4.37645L60.0378 4.75373C59.5499 5.02056 59.0821 5.31582 58.6311 5.64061L58.3547 5.39675C58.2406 5.29614 58.0638 5.30379 57.9597 5.41643C57.8568 5.52798 57.8646 5.70185 57.9799 5.80246L58.1679 5.96869C57.3487 6.6128 56.9806 6.99446 56.5128 7.51172C56.3842 7.38596 56.2555 7.25801 56.157 7.11038C56.0719 6.98243 55.8985 6.94743 55.7698 7.02945C55.64 7.11147 55.6042 7.28097 55.6881 7.40783C55.8179 7.60248 55.9813 7.7698 56.1492 7.93055C55.7396 8.42266 55.3658 8.93664 55.0201 9.46812L54.4986 9.10833C54.3744 9.02194 54.1987 9.05037 54.1081 9.17395C54.0185 9.29752 54.0488 9.46812 54.1752 9.5556L54.7191 9.93179C54.2938 10.6273 53.9122 11.3469 53.5541 12.0774C53.4042 11.9538 53.2654 11.8193 53.1547 11.6629C52.942 11.3644 52.4855 11.6804 52.6947 11.9746C52.8615 12.2097 53.0741 12.4142 53.3091 12.5881C52.942 13.3667 52.5951 14.1519 52.2538 14.9305C52.1934 15.0694 52.2594 15.2301 52.4016 15.2892C52.5504 15.3493 52.7104 15.2794 52.7697 15.1449Z" fill="#4495E1"/>
</g>
<defs>
<clipPath id="clip0_54_6112">
<rect width="70" height="70" fill="white"/>
</clipPath>
</defs>
</svg>
