<svg width="70" height="70" viewBox="0 0 70 70" fill="none" xmlns="http://www.w3.org/2000/svg">
<g clip-path="url(#clip0_54_6091)">
<path d="M64.3577 54.9277C67.6484 49.6803 69.5785 43.5347 69.9384 37.158C70.2984 30.7814 69.0745 24.4173 66.3995 18.7567C63.7246 13.0961 59.7008 8.3553 54.765 5.04885C49.8293 1.74239 44.1701 -0.00334417 38.4018 0.00115152C37.2731 0.00359808 36.1452 0.0720255 35.023 0.206148C30.6042 -0.327427 26.1335 0.177625 21.9029 1.68831C17.6723 3.19899 13.7771 5.68132 10.4717 8.9731C7.16633 12.2649 4.52515 16.2921 2.72072 20.7916C0.916298 25.291 -0.0107675 30.1616 9.43529e-05 35.085C0.0109562 40.0083 0.959501 44.8738 2.78376 49.3635C4.60802 53.8531 7.26694 57.8659 10.5868 61.1398C13.9067 64.4137 17.8128 66.8749 22.05 68.3626C26.2872 69.8504 30.7601 70.3312 35.1765 69.7738V69.82C36.2482 69.9399 37.3247 69.9999 38.4018 70C43.4921 69.9979 48.5064 68.6328 53.0176 66.0211C57.5288 63.4093 61.4031 59.6283 64.3103 55.0002H64.3577V54.9277ZM64.9796 21.2508H60.6912C60.0168 19.5152 59.2163 17.843 58.2976 16.2509H62.3512C63.3599 17.8276 64.2394 19.5009 64.9796 21.2508ZM65.9286 23.7508C66.4712 25.3769 66.8943 27.049 67.1937 28.7507H62.7146C62.4375 27.0542 62.0467 25.3829 61.5455 23.7508H65.9286ZM67.7433 35.0006C67.7433 35.4193 67.7286 35.8356 67.7151 36.2506H63.201C63.2134 35.8343 63.2292 35.4193 63.2292 35.0006C63.2284 33.7479 63.167 32.4961 63.0453 31.2506H67.5424C67.6739 32.4954 67.7409 33.7474 67.7433 35.0006ZM63.0453 38.7505H67.5424C67.3213 40.8737 66.9104 42.9672 66.3157 45.0004H61.9077C62.4593 42.9602 62.8401 40.8681 63.0453 38.7505ZM61.1381 47.5004H65.4863C64.8292 49.2403 64.0363 50.9133 63.1164 52.5003H58.9781C59.817 50.8999 60.5393 49.228 61.1381 47.5004ZM60.5738 13.7509H56.7154C55.7968 12.4236 54.7941 11.1704 53.7147 10.001H57.1273C58.3662 11.1452 59.5189 12.3993 60.5738 13.7509ZM54.0104 7.50103H51.1417C49.2962 5.88743 47.2943 4.50645 45.1729 3.3836C48.3037 4.20629 51.29 5.59759 54.0104 7.50103ZM2.28921 35.0006C2.28921 28.5728 4.01006 22.2894 7.23414 16.9448C10.4582 11.6003 15.0407 7.43479 20.4022 4.97499C25.7637 2.51518 31.6632 1.87158 37.3549 3.12558C43.0466 4.37958 48.2748 7.47485 52.3783 12.02C56.4817 16.5651 59.2762 22.356 60.4084 28.6602C61.5405 34.9645 60.9595 41.4991 58.7387 47.4376C56.5179 53.3761 52.7571 58.4518 47.932 62.0229C43.1068 65.594 37.4339 67.5 31.6307 67.5C23.8516 67.4901 16.3937 64.0629 10.893 57.9702C5.39237 51.8775 2.29817 43.6169 2.28921 35.0006ZM51.1417 62.5001H54.0104C51.29 64.4036 48.3037 65.7949 45.1729 66.6176C47.2943 65.4947 49.2962 64.1137 51.1417 62.5001ZM57.1228 60.0002H53.7147C55.1271 58.4689 56.4075 56.795 57.5392 55.0002H61.5037C60.2095 56.8344 58.7424 58.5105 57.1273 60.0002H57.1228Z" fill="#4495E1"/>
<path d="M33.8877 17.5007H24.8595C24.5602 17.5007 24.2732 17.6324 24.0616 17.8668C23.8499 18.1013 23.731 18.4192 23.731 18.7507V35.0004H21.474C21.1747 35.0004 20.8876 35.1321 20.676 35.3666C20.4644 35.601 20.3455 35.9189 20.3455 36.2504C20.3455 36.5819 20.4644 36.8999 20.676 37.1343C20.8876 37.3687 21.1747 37.5004 21.474 37.5004H23.731V40.0004H21.474C21.1747 40.0004 20.8876 40.1321 20.676 40.3665C20.4644 40.6009 20.3455 40.9188 20.3455 41.2503C20.3455 41.5819 20.4644 41.8998 20.676 42.1342C20.8876 42.3686 21.1747 42.5003 21.474 42.5003H23.731V51.2502C23.731 51.5817 23.8499 51.8996 24.0616 52.134C24.2732 52.3685 24.5602 52.5002 24.8595 52.5002C25.1588 52.5002 25.4459 52.3685 25.6575 52.134C25.8692 51.8996 25.9881 51.5817 25.9881 51.2502V42.5003H36.1447C36.444 42.5003 36.7311 42.3686 36.9427 42.1342C37.1543 41.8998 37.2732 41.5819 37.2732 41.2503C37.2732 40.9188 37.1543 40.6009 36.9427 40.3665C36.7311 40.1321 36.444 40.0004 36.1447 40.0004H25.9881V37.5004H33.8877C36.2821 37.5004 38.5784 36.4469 40.2715 34.5715C41.9647 32.6962 42.9158 30.1527 42.9158 27.5006C42.9158 24.8484 41.9647 22.3049 40.2715 20.4296C38.5784 18.5543 36.2821 17.5007 33.8877 17.5007ZM33.8877 35.0004H25.9881V20.0007H33.8877C35.6835 20.0007 37.4058 20.7909 38.6756 22.1974C39.9454 23.6039 40.6588 25.5115 40.6588 27.5006C40.6588 29.4897 39.9454 31.3973 38.6756 32.8038C37.4058 34.2103 35.6835 35.0004 33.8877 35.0004Z" fill="#4495E1"/>
<path d="M31.6306 7.50098C26.7202 7.50098 21.9201 9.1138 17.8373 12.1355C13.7544 15.1572 10.5722 19.452 8.69311 24.4769C6.81398 29.5018 6.32231 35.031 7.28029 40.3654C8.23826 45.6998 10.6028 50.5998 14.075 54.4456C17.5472 58.2915 21.971 60.9106 26.7871 61.9717C31.6031 63.0328 36.5951 62.4882 41.1317 60.4068C45.6683 58.3254 49.5458 54.8007 52.2739 50.2785C55.002 45.7562 56.4581 40.4394 56.4581 35.0005C56.4506 27.7097 53.8325 20.7199 49.178 15.5645C44.5236 10.4092 38.213 7.50925 31.6306 7.50098ZM31.6306 60.0001C27.1666 60.0001 22.8029 58.5339 19.0912 55.7869C15.3795 53.0399 12.4866 49.1355 10.7783 44.5675C9.07004 39.9994 8.62307 34.9728 9.49396 30.1233C10.3648 25.2739 12.5145 20.8194 15.671 17.3231C18.8275 13.8269 22.8492 11.4459 27.2274 10.4813C31.6056 9.51668 36.1438 10.0118 40.268 11.9039C44.3922 13.7961 47.9172 17.0003 50.3972 21.1115C52.8773 25.2227 54.201 30.0561 54.201 35.0005C54.1942 41.6285 51.814 47.9828 47.5827 52.6695C43.3515 57.3562 37.6146 59.9925 31.6306 60.0001Z" fill="#4495E1"/>
<path d="M15.8314 31.2505H13.5743C13.275 31.2505 12.988 31.3822 12.7763 31.6166C12.5647 31.851 12.4458 32.169 12.4458 32.5005C12.4458 32.832 12.5647 33.1499 12.7763 33.3843C12.988 33.6188 13.275 33.7504 13.5743 33.7504H15.8314C16.1307 33.7504 16.4177 33.6188 16.6293 33.3843C16.841 33.1499 16.9599 32.832 16.9599 32.5005C16.9599 32.169 16.841 31.851 16.6293 31.6166C16.4177 31.3822 16.1307 31.2505 15.8314 31.2505Z" fill="#4495E1"/>
<path d="M15.8314 36.2505H13.5743C13.275 36.2505 12.988 36.3822 12.7763 36.6166C12.5647 36.851 12.4458 37.169 12.4458 37.5005C12.4458 37.832 12.5647 38.1499 12.7763 38.3843C12.988 38.6188 13.275 38.7504 13.5743 38.7504H15.8314C16.1307 38.7504 16.4177 38.6188 16.6293 38.3843C16.841 38.1499 16.9599 37.832 16.9599 37.5005C16.9599 37.169 16.841 36.851 16.6293 36.6166C16.4177 36.3822 16.1307 36.2505 15.8314 36.2505Z" fill="#4495E1"/>
<path d="M47.43 33.7504H49.6871C49.9864 33.7504 50.2734 33.6188 50.4851 33.3843C50.6967 33.1499 50.8156 32.832 50.8156 32.5005C50.8156 32.169 50.6967 31.851 50.4851 31.6166C50.2734 31.3822 49.9864 31.2505 49.6871 31.2505H47.43C47.1307 31.2505 46.8437 31.3822 46.632 31.6166C46.4204 31.851 46.3015 32.169 46.3015 32.5005C46.3015 32.832 46.4204 33.1499 46.632 33.3843C46.8437 33.6188 47.1307 33.7504 47.43 33.7504Z" fill="#4495E1"/>
<path d="M49.6871 36.2505H47.43C47.1307 36.2505 46.8437 36.3822 46.632 36.6166C46.4204 36.851 46.3015 37.169 46.3015 37.5005C46.3015 37.832 46.4204 38.1499 46.632 38.3843C46.8437 38.6188 47.1307 38.7504 47.43 38.7504H49.6871C49.9864 38.7504 50.2734 38.6188 50.4851 38.3843C50.6967 38.1499 50.8156 37.832 50.8156 37.5005C50.8156 37.169 50.6967 36.851 50.4851 36.6166C50.2734 36.3822 49.9864 36.2505 49.6871 36.2505Z" fill="#4495E1"/>
</g>
<defs>
<clipPath id="clip0_54_6091">
<rect width="70" height="70" fill="white"/>
</clipPath>
</defs>
</svg>
