<svg width="70" height="70" viewBox="0 0 70 70" fill="none" xmlns="http://www.w3.org/2000/svg">
<g clip-path="url(#clip0_54_6105)">
<path d="M47.1289 33.9514C48.4661 33.9514 49.7235 33.5126 50.6694 32.7155C52.6213 31.0704 52.6213 28.3933 50.6692 26.748C46.4839 23.2208 40.9191 21.2782 35.0002 21.2782C29.0813 21.2782 23.5165 23.2208 19.3309 26.7482C17.3791 28.3933 17.3791 31.0704 19.3311 32.7156C21.2831 34.3608 24.4598 34.3609 26.4119 32.7155C28.7017 30.7856 31.7516 29.7227 35 29.7227C38.2484 29.7227 41.2984 30.7855 43.5882 32.7156C44.5342 33.5126 45.7915 33.9514 47.1289 33.9514ZM24.6912 31.2655C23.6876 32.1115 22.0549 32.1109 21.0518 31.2656C20.0483 30.4199 20.0483 29.0438 21.0517 28.1982C24.7776 25.0582 29.7313 23.329 35.0002 23.329C40.269 23.329 45.2229 25.0582 48.9485 28.1981C49.952 29.0438 49.952 30.4199 48.9487 31.2655C48.4625 31.6751 47.8162 31.9007 47.1287 31.9007C46.4414 31.9007 45.795 31.6751 45.309 31.2655C42.5597 28.9481 38.8984 27.672 35 27.672C31.1018 27.672 27.4405 28.9481 24.6912 31.2655ZM9.27386 57.3612C9.27386 59.5997 11.4347 61.4208 14.0906 61.4208C16.7467 61.4208 18.9075 59.5997 18.9075 57.3612C18.9075 55.1227 16.7467 53.3016 14.0906 53.3016C11.4347 53.3015 9.27386 55.1227 9.27386 57.3612ZM16.4743 57.3612C16.4743 58.4689 15.405 59.37 14.0908 59.37C12.7766 59.37 11.7074 58.4688 11.7074 57.3612C11.7074 56.2535 12.7766 55.3524 14.0908 55.3524C15.405 55.3523 16.4743 56.2535 16.4743 57.3612ZM5.00461 18.8937C6.34199 18.8937 7.59939 18.4547 8.54515 17.6577C15.5998 11.7121 24.995 8.43772 35.0002 8.43772C45.0053 8.43772 54.4006 11.7121 61.4552 17.6577C62.401 18.4547 63.6582 18.8935 64.9957 18.8935C66.3333 18.8935 67.5907 18.4545 68.5361 17.6576C70.488 16.0125 70.488 13.3354 68.5359 11.6901C59.5911 4.15159 47.6811 0 35.0002 0C25.6815 0 16.689 2.25298 8.99516 6.51559C8.43371 6.82663 8.27781 7.46251 8.64687 7.93582C9.01609 8.40901 9.77076 8.54012 10.3321 8.2295C17.6276 4.18728 26.1578 2.05078 35.0002 2.05078C47.0312 2.05078 58.3301 5.98909 66.8154 13.1402C67.8189 13.9859 67.8189 15.362 66.8154 16.2077C66.3295 16.6173 65.6832 16.8429 64.9957 16.8429C64.3082 16.8429 63.6619 16.6173 63.1759 16.2077C47.6395 3.11417 22.3606 3.11417 6.82428 16.2077C6.33826 16.6174 5.69196 16.843 5.00445 16.843C4.31695 16.843 3.67081 16.6175 3.18478 16.2078C2.18127 15.3621 2.18127 13.986 3.18478 13.1404C3.97887 12.4711 4.8114 11.8192 5.65886 11.2033C6.16776 10.8333 6.22438 10.1859 5.78556 9.75705C5.34658 9.32789 4.57829 9.28059 4.06955 9.65028C3.177 10.299 2.3005 10.9855 1.46391 11.6904C-0.48797 13.3355 -0.48797 16.0126 1.46391 17.6577C2.40984 18.4547 3.66724 18.8937 5.00461 18.8937ZM69.5644 38.1245C69.5644 36.8348 68.9686 35.6224 67.8866 34.7104C65.6527 32.828 62.0186 32.8282 59.7849 34.7104L42.7021 49.1072H27.2984L10.2156 34.7105C7.98175 32.8282 4.34761 32.8282 2.11394 34.7106C1.03191 35.6226 0.436059 36.835 0.436059 38.1246C0.436059 39.4143 1.03191 40.6267 2.11394 41.5386L11.0947 49.1074H10.0782C5.25087 49.1074 1.32359 52.4172 1.32359 56.4854V58.2372C1.32359 62.3054 5.25087 65.6152 10.0782 65.6152H11.0866V67.4931C11.0866 68.8754 12.421 70 14.0611 70H18.0795C19.7196 70 21.0541 68.8754 21.0541 67.4931V65.6152H48.9463V67.4931C48.9463 68.8754 50.2807 70 51.9208 70H55.9392C57.5793 70 58.9138 68.8754 58.9138 67.4931V65.6152H59.9222C61.1406 65.6152 62.3205 65.4079 63.4291 64.9991C64.0448 64.7722 64.3254 64.1676 64.0561 63.6487C63.7868 63.1299 63.0692 62.8932 62.4538 63.1203C61.6546 63.415 60.8027 63.5644 59.9222 63.5644H10.0782C6.59262 63.5644 3.75695 61.1747 3.75695 58.2372V56.4852C3.75695 53.5478 6.59262 51.158 10.0782 51.158H59.9222C63.4077 51.158 66.2434 53.5478 66.2434 56.4852V58.237C66.2434 58.9206 66.0922 59.5856 65.7942 60.2136C65.5445 60.7394 65.8479 61.3362 66.4718 61.5466C67.0956 61.7566 67.8037 61.501 68.0535 60.9754C68.467 60.104 68.6768 59.1828 68.6768 58.237V56.4852C68.6768 52.417 64.7495 49.1072 59.9222 49.1072H58.9057L67.8864 41.5385C68.9686 40.6266 69.5644 39.4142 69.5644 38.1245ZM51.3796 65.615H56.4804V67.493C56.4804 67.7446 56.2377 67.9491 55.9392 67.9491H51.9208C51.6223 67.9491 51.3796 67.7446 51.3796 67.493V65.615ZM13.5199 65.615H18.6207V67.493C18.6207 67.7446 18.378 67.9491 18.0795 67.9491H14.0611C13.7626 67.9491 13.5199 67.7446 13.5199 67.493V65.615ZM14.5363 49.1072L3.83449 40.0882C3.21204 39.5637 2.86942 38.8662 2.86942 38.1245C2.86942 37.3827 3.2122 36.6853 3.83465 36.1607C5.11947 35.0776 7.21005 35.0776 8.49486 36.1607L23.8568 49.1072H14.5363ZM66.1657 40.0883L55.4641 49.1074H46.1435L61.5055 36.1608C62.7901 35.0779 64.881 35.0781 66.1657 36.1607C66.7881 36.6854 67.1309 37.3828 67.1309 38.1246C67.1311 38.8663 66.7883 39.5639 66.1657 40.0883ZM21.0252 57.3612C21.0252 59.5997 23.186 61.4208 25.8421 61.4208C28.4982 61.4208 30.6591 59.5997 30.6591 57.3612C30.6591 55.1227 28.4982 53.3016 25.8421 53.3016C23.186 53.3015 21.0252 55.1227 21.0252 57.3612ZM28.2257 57.3612C28.2257 58.4689 27.1563 59.37 25.8421 59.37C24.5278 59.37 23.4586 58.4688 23.4586 57.3612C23.4586 56.2535 24.528 55.3524 25.8421 55.3524C27.1563 55.3523 28.2257 56.2535 28.2257 57.3612ZM48.0563 56.3358C47.3842 56.3358 46.8396 56.7948 46.8396 57.3612C46.8396 57.9276 47.3842 58.3866 48.0563 58.3866H55.224C55.8961 58.3866 56.4407 57.9276 56.4407 57.3612C56.4407 56.7948 55.8961 56.3358 55.224 56.3358H48.0563ZM56.0624 26.4226C57.3999 26.4226 58.6572 25.9836 59.6024 25.1868C61.5548 23.5417 61.555 20.8646 59.6029 19.2192C53.0403 13.6885 44.3027 10.6426 35.0003 10.6426C25.6978 10.6426 16.9604 13.6885 10.3979 19.2192C9.45215 20.0161 8.93125 21.0758 8.93125 22.2031C8.93141 23.3302 9.45231 24.3899 10.3979 25.1867C11.3434 25.9838 12.6008 26.4226 13.9381 26.4226C15.2755 26.4225 16.5329 25.9836 17.4787 25.1866C22.1498 21.2499 28.3723 19.0818 35.0003 19.0818C41.6282 19.0818 47.8509 21.2499 52.522 25.1866C53.4676 25.9836 54.7248 26.4226 56.0624 26.4226ZM15.7581 23.7364C15.2719 24.1461 14.6256 24.3717 13.9381 24.3717C13.2506 24.3717 12.6045 24.1463 12.1185 23.7365C11.6324 23.3269 11.3648 22.7822 11.3646 22.2028C11.3646 21.6235 11.6323 21.0788 12.1185 20.6692C18.2213 15.5258 26.3476 12.6931 35.0003 12.6931C43.653 12.6931 51.7793 15.5258 57.8822 20.6691C58.8857 21.5148 58.8856 22.8908 57.8819 23.7367C57.396 24.1463 56.7497 24.3717 56.0624 24.3717C55.375 24.3717 54.7287 24.1461 54.2427 23.7365C49.112 19.4122 42.2782 17.0309 35.0003 17.0309C27.7225 17.0309 20.8886 19.4123 15.7581 23.7364ZM26.917 39.9535C26.917 43.7099 30.5432 46.7658 35.0002 46.7658C39.4571 46.7658 43.0833 43.7097 43.0833 39.9535C43.0833 36.1972 39.4573 33.1412 35.0002 33.1412C30.5431 33.1412 26.917 36.1973 26.917 39.9535ZM40.6499 39.9535C40.6499 42.5791 38.1155 44.715 35.0002 44.715C31.8848 44.715 29.3504 42.5791 29.3504 39.9535C29.3504 37.328 31.8848 35.192 35.0002 35.192C38.1155 35.192 40.6499 37.328 40.6499 39.9535Z" fill="#4495E1"/>
</g>
<defs>
<clipPath id="clip0_54_6105">
<rect width="70" height="70" fill="white"/>
</clipPath>
</defs>
</svg>
