<svg width="27" height="24" viewBox="0 0 27 24" fill="none" xmlns="http://www.w3.org/2000/svg">
<g clip-path="url(#clip0_54_6338)">
<path d="M24.8745 3.18271H24.4615V2.47409C24.4615 1.88797 23.9057 1.41116 23.2225 1.41116C22.5392 1.41116 21.9834 1.88797 21.9834 2.47409V3.18271H5.46288V2.47409C5.46288 1.88797 4.90706 1.41116 4.22384 1.41116C3.54061 1.41116 2.9848 1.88797 2.9848 2.47409V3.18271H2.57178C1.4331 3.18271 0.506714 3.97742 0.506714 4.95425V20.5438C0.506714 21.5206 1.4331 22.3154 2.57178 22.3154H24.8745C26.0132 22.3154 26.9396 21.5206 26.9396 20.5438V4.95425C26.9396 3.97742 26.0132 3.18271 24.8745 3.18271ZM22.8095 2.47409C22.8095 2.27873 22.9947 2.11978 23.2225 2.11978C23.4502 2.11978 23.6355 2.27873 23.6355 2.47409V3.53617C23.6355 3.53648 23.6354 3.53675 23.6354 3.53701C23.6354 3.53728 23.6355 3.53759 23.6355 3.53785V4.59994C23.6355 4.7953 23.4502 4.95425 23.2225 4.95425C22.9947 4.95425 22.8095 4.7953 22.8095 4.59994V2.47409ZM4.22384 2.11978C4.45156 2.11978 4.63685 2.27873 4.63685 2.47409V4.59994C4.63685 4.7953 4.45156 4.95425 4.22384 4.95425C3.99611 4.95425 3.81082 4.7953 3.81082 4.59994V3.53746C3.81082 3.53732 3.81082 3.53715 3.81082 3.53701C3.81082 3.53688 3.81082 3.53675 3.81082 3.53657V2.47409C3.81082 2.27873 3.99611 2.11978 4.22384 2.11978ZM24.8745 21.6067H2.57178C1.88855 21.6067 1.33274 21.1299 1.33274 20.5438V7.0801H21.1574C21.3855 7.0801 21.5704 6.92146 21.5704 6.72579C21.5704 6.53012 21.3855 6.37148 21.1574 6.37148H1.33274V4.95425C1.33274 4.36813 1.88855 3.89132 2.57178 3.89132H2.9848V4.59994C2.9848 5.18605 3.54061 5.66286 4.22384 5.66286C4.90706 5.66286 5.46288 5.18605 5.46288 4.59994V3.89132H21.9834V4.59994C21.9834 5.18605 22.5392 5.66286 23.2225 5.66286C23.9057 5.66286 24.4615 5.18605 24.4615 4.59994V3.89132H24.8745C25.5577 3.89132 26.1136 4.36813 26.1136 4.95425V6.37148H25.2875C25.0594 6.37148 24.8745 6.53012 24.8745 6.72579C24.8745 6.92146 25.0594 7.0801 25.2875 7.0801H26.1136V20.5438C26.1136 21.1299 25.5577 21.6067 24.8745 21.6067Z" fill="#5799D7" fill-opacity="0.81"/>
<path d="M23.6355 6.37149H22.8095C22.5814 6.37149 22.3965 6.53013 22.3965 6.7258C22.3965 6.92147 22.5814 7.08011 22.8095 7.08011H23.6355C23.8636 7.08011 24.0485 6.92147 24.0485 6.7258C24.0485 6.53013 23.8636 6.37149 23.6355 6.37149Z" fill="#5799D7" fill-opacity="0.81"/>
<path d="M14.1361 9.56024H13.3101C13.082 9.56024 12.8971 9.71888 12.8971 9.91455C12.8971 10.1102 13.082 10.2689 13.3101 10.2689H14.1361C14.3642 10.2689 14.5491 10.1102 14.5491 9.91455C14.5491 9.71888 14.3642 9.56024 14.1361 9.56024Z" fill="#5799D7" fill-opacity="0.81"/>
<path d="M14.1361 11.3318H13.3101C13.082 11.3318 12.8971 11.4904 12.8971 11.6861C12.8971 11.8818 13.082 12.0404 13.3101 12.0404H14.1361C14.3642 12.0404 14.5491 11.8818 14.5491 11.6861C14.5491 11.4904 14.3642 11.3318 14.1361 11.3318Z" fill="#5799D7" fill-opacity="0.81"/>
<path d="M14.1361 13.1033H13.3101C13.082 13.1033 12.8971 13.262 12.8971 13.4576C12.8971 13.6533 13.082 13.8119 13.3101 13.8119H14.1361C14.3642 13.8119 14.5491 13.6533 14.5491 13.4576C14.5491 13.262 14.3642 13.1033 14.1361 13.1033Z" fill="#5799D7" fill-opacity="0.81"/>
<path d="M14.1361 14.8749H13.3101C13.082 14.8749 12.8971 15.0335 12.8971 15.2292C12.8971 15.4249 13.082 15.5835 13.3101 15.5835H14.1361C14.3642 15.5835 14.5491 15.4249 14.5491 15.2292C14.5491 15.0335 14.3642 14.8749 14.1361 14.8749Z" fill="#5799D7" fill-opacity="0.81"/>
<path d="M14.1361 16.6464H13.3101C13.082 16.6464 12.8971 16.8051 12.8971 17.0007C12.8971 17.1964 13.082 17.355 13.3101 17.355H14.1361C14.3642 17.355 14.5491 17.1964 14.5491 17.0007C14.5491 16.8051 14.3642 16.6464 14.1361 16.6464Z" fill="#5799D7" fill-opacity="0.81"/>
<path d="M14.1361 18.418H13.3101C13.082 18.418 12.8971 18.5766 12.8971 18.7723C12.8971 18.9679 13.082 19.1266 13.3101 19.1266H14.1361C14.3642 19.1266 14.5491 18.9679 14.5491 18.7723C14.5491 18.5766 14.3642 18.418 14.1361 18.418Z" fill="#5799D7" fill-opacity="0.81"/>
<path d="M17.0272 9.56024H16.2012C15.9731 9.56024 15.7882 9.71888 15.7882 9.91455C15.7882 10.1102 15.9731 10.2689 16.2012 10.2689H17.0272C17.2553 10.2689 17.4403 10.1102 17.4403 9.91455C17.4403 9.71888 17.2553 9.56024 17.0272 9.56024Z" fill="#5799D7" fill-opacity="0.81"/>
<path d="M17.0272 11.3318H16.2012C15.9731 11.3318 15.7882 11.4904 15.7882 11.6861C15.7882 11.8818 15.9731 12.0404 16.2012 12.0404H17.0272C17.2553 12.0404 17.4403 11.8818 17.4403 11.6861C17.4403 11.4904 17.2553 11.3318 17.0272 11.3318Z" fill="#5799D7" fill-opacity="0.81"/>
<path d="M17.0272 13.1033H16.2012C15.9731 13.1033 15.7882 13.262 15.7882 13.4576C15.7882 13.6533 15.9731 13.8119 16.2012 13.8119H17.0272C17.2553 13.8119 17.4403 13.6533 17.4403 13.4576C17.4403 13.262 17.2553 13.1033 17.0272 13.1033Z" fill="#5799D7" fill-opacity="0.81"/>
<path d="M17.0272 14.8749H16.2012C15.9731 14.8749 15.7882 15.0335 15.7882 15.2292C15.7882 15.4249 15.9731 15.5835 16.2012 15.5835H17.0272C17.2553 15.5835 17.4403 15.4249 17.4403 15.2292C17.4403 15.0335 17.2553 14.8749 17.0272 14.8749Z" fill="#5799D7" fill-opacity="0.81"/>
<path d="M17.0272 16.6464H16.2012C15.9731 16.6464 15.7882 16.8051 15.7882 17.0007C15.7882 17.1964 15.9731 17.355 16.2012 17.355H17.0272C17.2553 17.355 17.4403 17.1964 17.4403 17.0007C17.4403 16.8051 17.2553 16.6464 17.0272 16.6464Z" fill="#5799D7" fill-opacity="0.81"/>
<path d="M17.0272 18.418H16.2012C15.9731 18.418 15.7882 18.5766 15.7882 18.7723C15.7882 18.9679 15.9731 19.1266 16.2012 19.1266H17.0272C17.2553 19.1266 17.4403 18.9679 17.4403 18.7723C17.4403 18.5766 17.2553 18.418 17.0272 18.418Z" fill="#5799D7" fill-opacity="0.81"/>
<path d="M11.245 9.56024H10.419C10.1909 9.56024 10.006 9.71888 10.006 9.91455C10.006 10.1102 10.1909 10.2689 10.419 10.2689H11.245C11.4731 10.2689 11.658 10.1102 11.658 9.91455C11.658 9.71888 11.4731 9.56024 11.245 9.56024Z" fill="#5799D7" fill-opacity="0.81"/>
<path d="M11.245 11.3318H10.419C10.1909 11.3318 10.006 11.4904 10.006 11.6861C10.006 11.8818 10.1909 12.0404 10.419 12.0404H11.245C11.4731 12.0404 11.658 11.8818 11.658 11.6861C11.658 11.4904 11.4731 11.3318 11.245 11.3318Z" fill="#5799D7" fill-opacity="0.81"/>
<path d="M11.245 13.1033H10.419C10.1909 13.1033 10.006 13.262 10.006 13.4576C10.006 13.6533 10.1909 13.8119 10.419 13.8119H11.245C11.4731 13.8119 11.658 13.6533 11.658 13.4576C11.658 13.262 11.4731 13.1033 11.245 13.1033Z" fill="#5799D7" fill-opacity="0.81"/>
<path d="M11.245 14.8749H10.419C10.1909 14.8749 10.006 15.0335 10.006 15.2292C10.006 15.4249 10.1909 15.5835 10.419 15.5835H11.245C11.4731 15.5835 11.658 15.4249 11.658 15.2292C11.658 15.0335 11.4731 14.8749 11.245 14.8749Z" fill="#5799D7" fill-opacity="0.81"/>
<path d="M11.245 16.6464H10.419C10.1909 16.6464 10.006 16.8051 10.006 17.0007C10.006 17.1964 10.1909 17.355 10.419 17.355H11.245C11.4731 17.355 11.658 17.1964 11.658 17.0007C11.658 16.8051 11.4731 16.6464 11.245 16.6464Z" fill="#5799D7" fill-opacity="0.81"/>
<path d="M11.245 18.418H10.419C10.1909 18.418 10.006 18.5766 10.006 18.7723C10.006 18.9679 10.1909 19.1266 10.419 19.1266H11.245C11.4731 19.1266 11.658 18.9679 11.658 18.7723C11.658 18.5766 11.4731 18.418 11.245 18.418Z" fill="#5799D7" fill-opacity="0.81"/>
<path d="M8.35403 9.56024H7.528C7.29992 9.56024 7.11499 9.71888 7.11499 9.91455C7.11499 10.1102 7.29992 10.2689 7.528 10.2689H8.35403C8.58212 10.2689 8.76704 10.1102 8.76704 9.91455C8.76704 9.71888 8.58212 9.56024 8.35403 9.56024Z" fill="#5799D7" fill-opacity="0.81"/>
<path d="M8.35403 11.3318H7.528C7.29992 11.3318 7.11499 11.4904 7.11499 11.6861C7.11499 11.8818 7.29992 12.0404 7.528 12.0404H8.35403C8.58212 12.0404 8.76704 11.8818 8.76704 11.6861C8.76704 11.4904 8.58212 11.3318 8.35403 11.3318Z" fill="#5799D7" fill-opacity="0.81"/>
<path d="M8.35403 13.1033H7.528C7.29992 13.1033 7.11499 13.262 7.11499 13.4576C7.11499 13.6533 7.29992 13.8119 7.528 13.8119H8.35403C8.58212 13.8119 8.76704 13.6533 8.76704 13.4576C8.76704 13.262 8.58212 13.1033 8.35403 13.1033Z" fill="#5799D7" fill-opacity="0.81"/>
<path d="M8.35403 14.8749H7.528C7.29992 14.8749 7.11499 15.0335 7.11499 15.2292C7.11499 15.4249 7.29992 15.5835 7.528 15.5835H8.35403C8.58212 15.5835 8.76704 15.4249 8.76704 15.2292C8.76704 15.0335 8.58212 14.8749 8.35403 14.8749Z" fill="#5799D7" fill-opacity="0.81"/>
<path d="M8.35403 16.6464H7.528C7.29992 16.6464 7.11499 16.8051 7.11499 17.0007C7.11499 17.1964 7.29992 17.355 7.528 17.355H8.35403C8.58212 17.355 8.76704 17.1964 8.76704 17.0007C8.76704 16.8051 8.58212 16.6464 8.35403 16.6464Z" fill="#5799D7" fill-opacity="0.81"/>
<path d="M8.35403 18.418H7.528C7.29992 18.418 7.11499 18.5766 7.11499 18.7723C7.11499 18.9679 7.29992 19.1266 7.528 19.1266H8.35403C8.58212 19.1266 8.76704 18.9679 8.76704 18.7723C8.76704 18.5766 8.58212 18.418 8.35403 18.418Z" fill="#5799D7" fill-opacity="0.81"/>
<path d="M19.9184 9.56024H19.0923C18.8642 9.56024 18.6793 9.71888 18.6793 9.91455C18.6793 10.1102 18.8642 10.2689 19.0923 10.2689H19.9184C20.1464 10.2689 20.3314 10.1102 20.3314 9.91455C20.3314 9.71888 20.1464 9.56024 19.9184 9.56024Z" fill="#5799D7" fill-opacity="0.81"/>
<path d="M19.9184 11.3318H19.0923C18.8642 11.3318 18.6793 11.4904 18.6793 11.6861C18.6793 11.8818 18.8642 12.0404 19.0923 12.0404H19.9184C20.1464 12.0404 20.3314 11.8818 20.3314 11.6861C20.3314 11.4904 20.1464 11.3318 19.9184 11.3318Z" fill="#5799D7" fill-opacity="0.81"/>
<path d="M19.9184 13.1033H19.0923C18.8642 13.1033 18.6793 13.262 18.6793 13.4576C18.6793 13.6533 18.8642 13.8119 19.0923 13.8119H19.9184C20.1464 13.8119 20.3314 13.6533 20.3314 13.4576C20.3314 13.262 20.1464 13.1033 19.9184 13.1033Z" fill="#5799D7" fill-opacity="0.81"/>
<path d="M19.9184 14.8749H19.0923C18.8642 14.8749 18.6793 15.0335 18.6793 15.2292C18.6793 15.4249 18.8642 15.5835 19.0923 15.5835H19.9184C20.1464 15.5835 20.3314 15.4249 20.3314 15.2292C20.3314 15.0335 20.1464 14.8749 19.9184 14.8749Z" fill="#5799D7" fill-opacity="0.81"/>
<path d="M19.9184 16.6464H19.0923C18.8642 16.6464 18.6793 16.8051 18.6793 17.0007C18.6793 17.1964 18.8642 17.355 19.0923 17.355H19.9184C20.1464 17.355 20.3314 17.1964 20.3314 17.0007C20.3314 16.8051 20.1464 16.6464 19.9184 16.6464Z" fill="#5799D7" fill-opacity="0.81"/>
<path d="M19.9184 18.418H19.0923C18.8642 18.418 18.6793 18.5766 18.6793 18.7723C18.6793 18.9679 18.8642 19.1266 19.0923 19.1266H19.9184C20.1464 19.1266 20.3314 18.9679 20.3314 18.7723C20.3314 18.5766 20.1464 18.418 19.9184 18.418Z" fill="#5799D7" fill-opacity="0.81"/>
<path d="M22.8095 9.56024H21.9834C21.7554 9.56024 21.5704 9.71888 21.5704 9.91455C21.5704 10.1102 21.7554 10.2689 21.9834 10.2689H22.8095C23.0376 10.2689 23.2225 10.1102 23.2225 9.91455C23.2225 9.71888 23.0376 9.56024 22.8095 9.56024Z" fill="#5799D7" fill-opacity="0.81"/>
<path d="M22.8095 11.3318H21.9834C21.7554 11.3318 21.5704 11.4904 21.5704 11.6861C21.5704 11.8818 21.7554 12.0404 21.9834 12.0404H22.8095C23.0376 12.0404 23.2225 11.8818 23.2225 11.6861C23.2225 11.4904 23.0376 11.3318 22.8095 11.3318Z" fill="#5799D7" fill-opacity="0.81"/>
<path d="M22.8095 13.1033H21.9834C21.7554 13.1033 21.5704 13.262 21.5704 13.4576C21.5704 13.6533 21.7554 13.8119 21.9834 13.8119H22.8095C23.0376 13.8119 23.2225 13.6533 23.2225 13.4576C23.2225 13.262 23.0376 13.1033 22.8095 13.1033Z" fill="#5799D7" fill-opacity="0.81"/>
<path d="M22.8095 14.8749H21.9834C21.7554 14.8749 21.5704 15.0335 21.5704 15.2292C21.5704 15.4249 21.7554 15.5835 21.9834 15.5835H22.8095C23.0376 15.5835 23.2225 15.4249 23.2225 15.2292C23.2225 15.0335 23.0376 14.8749 22.8095 14.8749Z" fill="#5799D7" fill-opacity="0.81"/>
<path d="M22.8095 16.6464H21.9834C21.7554 16.6464 21.5704 16.8051 21.5704 17.0007C21.5704 17.1964 21.7554 17.355 21.9834 17.355H22.8095C23.0376 17.355 23.2225 17.1964 23.2225 17.0007C23.2225 16.8051 23.0376 16.6464 22.8095 16.6464Z" fill="#5799D7" fill-opacity="0.81"/>
<path d="M22.8095 18.418H21.9834C21.7554 18.418 21.5704 18.5766 21.5704 18.7723C21.5704 18.9679 21.7554 19.1266 21.9834 19.1266H22.8095C23.0376 19.1266 23.2225 18.9679 23.2225 18.7723C23.2225 18.5766 23.0376 18.418 22.8095 18.418Z" fill="#5799D7" fill-opacity="0.81"/>
<path d="M5.46292 9.56024H4.63689C4.4088 9.56024 4.22388 9.71888 4.22388 9.91455C4.22388 10.1102 4.4088 10.2689 4.63689 10.2689H5.46292C5.691 10.2689 5.87593 10.1102 5.87593 9.91455C5.87593 9.71888 5.691 9.56024 5.46292 9.56024Z" fill="#5799D7" fill-opacity="0.81"/>
<path d="M5.46292 11.3318H4.63689C4.4088 11.3318 4.22388 11.4904 4.22388 11.6861C4.22388 11.8818 4.4088 12.0404 4.63689 12.0404H5.46292C5.691 12.0404 5.87593 11.8818 5.87593 11.6861C5.87593 11.4904 5.691 11.3318 5.46292 11.3318Z" fill="#5799D7" fill-opacity="0.81"/>
<path d="M5.46292 13.1033H4.63689C4.4088 13.1033 4.22388 13.262 4.22388 13.4576C4.22388 13.6533 4.4088 13.8119 4.63689 13.8119H5.46292C5.691 13.8119 5.87593 13.6533 5.87593 13.4576C5.87593 13.262 5.691 13.1033 5.46292 13.1033Z" fill="#5799D7" fill-opacity="0.81"/>
<path d="M5.46292 14.8749H4.63689C4.4088 14.8749 4.22388 15.0335 4.22388 15.2292C4.22388 15.4249 4.4088 15.5835 4.63689 15.5835H5.46292C5.691 15.5835 5.87593 15.4249 5.87593 15.2292C5.87593 15.0335 5.691 14.8749 5.46292 14.8749Z" fill="#5799D7" fill-opacity="0.81"/>
<path d="M5.46292 16.6464H4.63689C4.4088 16.6464 4.22388 16.8051 4.22388 17.0007C4.22388 17.1964 4.4088 17.355 4.63689 17.355H5.46292C5.691 17.355 5.87593 17.1964 5.87593 17.0007C5.87593 16.8051 5.691 16.6464 5.46292 16.6464Z" fill="#5799D7" fill-opacity="0.81"/>
<path d="M5.46292 18.418H4.63689C4.4088 18.418 4.22388 18.5766 4.22388 18.7723C4.22388 18.9679 4.4088 19.1266 4.63689 19.1266H5.46292C5.691 19.1266 5.87593 18.9679 5.87593 18.7723C5.87593 18.5766 5.691 18.418 5.46292 18.418Z" fill="#5799D7" fill-opacity="0.81"/>
</g>
<defs>
<clipPath id="clip0_54_6338">
<rect width="26.4329" height="22.6757" fill="white" transform="translate(0.506714 0.525391)"/>
</clipPath>
</defs>
</svg>
