<svg width="25" height="24" viewBox="0 0 25 24" fill="none" xmlns="http://www.w3.org/2000/svg">
<g clip-path="url(#clip0_54_5945)">
<path d="M8.13638 13.5752C8.3114 13.7503 8.3114 14.034 8.13638 14.209L3.76709 18.5783C3.6796 18.6658 3.56488 18.7095 3.45021 18.7095C3.05451 18.7095 2.85026 18.2276 3.13333 17.9445L7.50262 13.5752C7.67764 13.4002 7.96136 13.4002 8.13638 13.5752ZM17.4974 13.5752C17.3223 13.4002 17.0386 13.4002 16.8636 13.5752C16.6885 13.7503 16.6885 14.034 16.8636 14.209L21.2329 18.5783C21.4079 18.7533 21.6916 18.7533 21.8667 18.5783C22.0417 18.4033 22.0417 18.1196 21.8667 17.9445L17.4974 13.5752ZM24.5 5.22822V18.7718C24.5 20.1171 23.4055 21.2116 22.0602 21.2116H2.93983C1.59449 21.2116 0.5 20.1171 0.5 18.7718V5.22822C0.5 3.88287 1.59449 2.78838 2.93983 2.78838H22.0602C23.4055 2.78838 24.5 3.88287 24.5 5.22822ZM23.6037 5.22822C23.6037 4.37706 22.9113 3.68465 22.0602 3.68465H2.93983C2.08873 3.68465 1.39627 4.37706 1.39627 5.22822V6.7568L11.6517 11.7371C12.1908 11.999 12.8092 11.999 13.3483 11.7371L20.519 8.2548C20.7419 8.14671 21.0098 8.23957 21.1179 8.46214C21.226 8.68476 21.1332 8.9529 20.9106 9.061L13.7398 12.5434C12.9519 12.926 12.0481 12.926 11.2601 12.5434L1.39627 7.75315V18.7718C1.39627 19.6229 2.08873 20.3154 2.93983 20.3154H22.0602C22.9113 20.3154 23.6037 19.6229 23.6037 18.7718V5.22822Z" fill="white"/>
</g>
<defs>
<clipPath id="clip0_54_5945">
<rect width="24" height="24" fill="white" transform="translate(0.5)"/>
</clipPath>
</defs>
</svg>
