<svg width="24" height="19" viewBox="0 0 24 19" fill="none" xmlns="http://www.w3.org/2000/svg">
<path d="M7.63638 11.039C7.8114 11.21 7.8114 11.4872 7.63638 11.6582L3.26709 15.9272C3.1796 16.0126 3.06488 16.0554 2.95021 16.0554C2.55451 16.0554 2.35026 15.5845 2.63333 15.308L7.00262 11.039C7.17764 10.868 7.46136 10.868 7.63638 11.039ZM16.9974 11.039C16.8223 10.868 16.5386 10.868 16.3636 11.039C16.1885 11.21 16.1885 11.4872 16.3636 11.6582L20.7329 15.9272C20.9079 16.0982 21.1916 16.0982 21.3667 15.9272C21.5417 15.7562 21.5417 15.479 21.3667 15.308L16.9974 11.039ZM24 2.88378V16.1162C24 17.4307 22.9055 18.5 21.5602 18.5H2.43983C1.09449 18.5 0 17.4307 0 16.1162V2.88378C0 1.56935 1.09449 0.5 2.43983 0.5H21.5602C22.9055 0.5 24 1.56935 24 2.88378ZM23.1037 2.88378C23.1037 2.05218 22.4113 1.37568 21.5602 1.37568H2.43983C1.58873 1.37568 0.896266 2.05218 0.896266 2.88378V4.37725L11.1517 9.24318C11.6908 9.49898 12.3092 9.49903 12.8483 9.24318L20.019 5.84084C20.2419 5.73523 20.5098 5.82596 20.6179 6.04342C20.726 6.26092 20.6332 6.5229 20.4106 6.62851L13.2398 10.0309C12.4519 10.4047 11.5481 10.4048 10.7601 10.0309L0.896266 5.35071V16.1162C0.896266 16.9478 1.58873 17.6243 2.43983 17.6243H21.5602C22.4113 17.6243 23.1037 16.9478 23.1037 16.1162V2.88378Z" fill="#5799D7"/>
</svg>
