<svg width="24" height="24" viewBox="0 0 24 24" fill="none" xmlns="http://www.w3.org/2000/svg">
<path d="M3.70261 0.000657365C3.28923 0.0131589 2.92606 0.231314 2.62211 0.535258L0.946459 2.20769C0.906542 2.24581 0.874643 2.29151 0.852635 2.34212C0.830627 2.39274 0.818954 2.44727 0.8183 2.50246C0.817646 2.55765 0.828025 2.61238 0.848828 2.6635C0.86963 2.71463 0.900437 2.76108 0.93944 2.80014C0.978442 2.83919 1.02485 2.87006 1.07595 2.89094C1.12705 2.91181 1.1818 2.92228 1.23699 2.9217C1.29218 2.92112 1.3467 2.90954 1.39735 2.8876C1.448 2.86566 1.49375 2.8338 1.53193 2.79394L2.10851 2.21737L5.49052 5.68412C5.87461 6.10202 6.49096 5.50162 6.08325 5.10674L2.69318 1.63269L3.20516 1.1207C3.41735 0.908514 3.5883 0.83261 3.72683 0.828359C3.86545 0.823671 4.03264 0.880557 4.27274 1.1207L7.82594 4.67067C7.99296 4.83769 7.99296 5.0867 7.82594 5.25372L5.90883 7.17003C5.42359 7.65527 5.26131 8.21786 5.3169 8.69067C5.37253 9.16348 5.60485 9.53247 5.799 9.78324C6.54947 10.7526 7.71414 12.4551 9.62919 14.3701C11.5442 16.2852 13.2475 17.4506 14.2169 18.2011C14.4676 18.3952 14.8367 18.6276 15.3095 18.6832C15.7823 18.7389 16.344 18.5765 16.8293 18.0912L17.4026 17.5195L20.7911 20.9815C21.1737 21.4388 21.8298 20.7962 21.3806 20.4041L17.9857 16.9365L18.7464 16.1774C18.9134 16.0103 19.1624 16.0103 19.3294 16.1774L22.8786 19.7265C23.1187 19.9666 23.176 20.1347 23.1717 20.2732C23.167 20.4119 23.0908 20.5827 22.8786 20.7949L21.2062 22.4673C20.5083 23.1651 19.5915 23.1723 19.0177 23.1723C16.8511 23.1723 12.9972 22.3589 7.3188 16.6805C1.64038 11.0021 0.826939 7.14898 0.826939 4.98241C0.826939 4.77564 0.825698 4.52141 0.860843 4.24914C0.872322 4.19332 0.872141 4.13577 0.860311 4.08003C0.84848 4.02429 0.825257 3.97157 0.792097 3.92523C0.758937 3.87889 0.716556 3.83991 0.667615 3.81073C0.618674 3.78154 0.564228 3.76275 0.507694 3.7556C0.451161 3.74845 0.393759 3.7531 0.339093 3.76919C0.284426 3.78527 0.233674 3.81244 0.190022 3.84907C0.146369 3.8857 0.110759 3.93099 0.0854244 3.98203C0.06009 4.03307 0.045579 4.08878 0.0428018 4.1457C-1.65563e-05 4.47963 0 4.7739 0 4.98151C0 7.36248 0.952665 11.4796 6.73655 17.2635C12.5204 23.0473 16.6367 24 19.0177 24C19.5931 24 20.8397 24.0062 21.7924 23.0535L23.4649 21.3811C23.7688 21.0772 23.9867 20.7108 23.9995 20.2974C24.012 19.8841 23.8087 19.4848 23.4649 19.141L19.9157 15.591C19.4349 15.1102 18.6409 15.1102 18.1601 15.591L16.247 17.5081C15.9053 17.8498 15.6491 17.8907 15.4039 17.8619C15.1587 17.8331 14.9093 17.6912 14.724 17.5477C13.7133 16.7652 12.076 15.6451 10.2155 13.7845C8.35486 11.924 7.2348 10.2867 6.45229 9.27601C6.30884 9.09066 6.16699 8.84047 6.13816 8.59529C6.10926 8.3501 6.15363 8.09469 6.49509 7.75299L8.40897 5.83992C8.88982 5.3591 8.8898 4.56516 8.40897 4.08432L4.85901 0.535163C4.51517 0.191308 4.11597 -0.0120473 3.70261 0.000657365Z" fill="#5799D7"/>
</svg>
