<svg width="24" height="24" viewBox="0 0 24 24" fill="none" xmlns="http://www.w3.org/2000/svg">
<path d="M4.4839 1.10693C4.10897 1.11827 3.77959 1.31613 3.50392 1.5918L1.98414 3.10864C1.94794 3.14322 1.91901 3.18467 1.89905 3.23058C1.87909 3.27648 1.8685 3.32594 1.86791 3.37599C1.86732 3.42605 1.87673 3.47569 1.8956 3.52206C1.91446 3.56843 1.9424 3.61056 1.97778 3.64598C2.01315 3.6814 2.05525 3.7094 2.10159 3.72833C2.14793 3.74726 2.19759 3.75676 2.24765 3.75623C2.29771 3.75571 2.34716 3.7452 2.39309 3.72531C2.43903 3.70541 2.48053 3.67651 2.51515 3.64036L3.0381 3.11742L6.10548 6.26168C6.45385 6.6407 7.01286 6.09615 6.64308 5.73801L3.56837 2.58714L4.03273 2.12277C4.22517 1.93033 4.38023 1.86149 4.50587 1.85763C4.63159 1.85338 4.78323 1.90497 5.00099 2.12277L8.22365 5.3425C8.37513 5.49399 8.37513 5.71983 8.22365 5.87132L6.48488 7.60936C6.04478 8.04946 5.8976 8.55971 5.94801 8.98854C5.99847 9.41736 6.20918 9.75203 6.38527 9.97947C7.06592 10.8586 8.12224 12.4028 9.85915 14.1397C11.596 15.8765 13.1409 16.9336 14.02 17.6142C14.2475 17.7903 14.5822 18.0011 15.011 18.0515C15.4398 18.102 15.9493 17.9547 16.3894 17.5146L16.9094 16.9961L19.9827 20.136C20.3297 20.5507 20.9247 19.9679 20.5173 19.6123L17.4382 16.4673L18.1282 15.7788C18.2797 15.6273 18.5055 15.6273 18.657 15.7788L21.876 18.9978C22.0938 19.2155 22.1457 19.368 22.1419 19.4936C22.1376 19.6193 22.0685 19.7743 21.876 19.9668L20.3591 21.4836C19.7262 22.1165 18.8947 22.123 18.3743 22.123C16.4093 22.123 12.9138 21.3853 7.76368 16.2351C2.61352 11.0849 1.87574 7.59027 1.87574 5.62525C1.87574 5.43771 1.87462 5.20713 1.90649 4.96019C1.9169 4.90956 1.91674 4.85737 1.90601 4.80681C1.89528 4.75625 1.87422 4.70844 1.84414 4.66641C1.81407 4.62438 1.77563 4.58903 1.73124 4.56256C1.68685 4.53609 1.63747 4.51904 1.5862 4.51256C1.53492 4.50607 1.48286 4.5103 1.43328 4.52489C1.3837 4.53947 1.33767 4.56411 1.29808 4.59734C1.25849 4.63056 1.22619 4.67163 1.20321 4.71793C1.18023 4.76422 1.16707 4.81475 1.16455 4.86637C1.12572 5.16924 1.12573 5.43614 1.12573 5.62443C1.12573 7.7839 1.98977 11.518 7.2356 16.7638C12.4814 22.0097 16.2148 22.8737 18.3743 22.8737C18.8962 22.8737 20.0268 22.8794 20.8909 22.0153L22.4077 20.4984C22.6834 20.2228 22.8811 19.8905 22.8926 19.5156C22.9039 19.1406 22.7196 18.7786 22.4077 18.4667L19.1887 15.247C18.7526 14.8109 18.0325 14.8109 17.5964 15.247L15.8613 16.9858C15.5514 17.2957 15.3191 17.3327 15.0967 17.3066C14.8743 17.2805 14.6481 17.1518 14.48 17.0217C13.5633 16.312 12.0784 15.2961 10.3909 13.6085C8.70337 11.921 7.68749 10.4361 6.97778 9.51943C6.84767 9.35132 6.71902 9.12441 6.69287 8.90203C6.66666 8.67965 6.70691 8.448 7.0166 8.13809L8.75244 6.40299C9.18855 5.96689 9.18854 5.24681 8.75244 4.8107L5.53272 1.59171C5.22086 1.27984 4.85881 1.0954 4.4839 1.10693Z" fill="white"/>
</svg>
