<svg width="25" height="19" viewBox="0 0 25 19" fill="none" xmlns="http://www.w3.org/2000/svg">
<path d="M23.9308 1.33045L13.9456 17.7952C13.7659 18.0824 13.473 18.2869 13.142 18.3561C13.0592 18.3736 12.9752 18.382 12.8909 18.382C12.6427 18.382 12.3968 18.3073 12.1905 18.1658L9.8334 16.5585L7.43688 18.1487C7.11712 18.3594 6.71091 18.3772 6.37426 18.1962C6.03854 18.0153 5.82983 17.6669 5.82983 17.2865V13.5974C5.82983 13.2852 5.97925 12.9867 6.22944 12.8L11.5632 8.81757L11.1141 9.05454L4.72023 12.4263C4.39295 12.5989 3.99995 12.5763 3.69433 12.3674L0.539343 10.2141C0.156626 9.95544 -0.0474895 9.50591 0.00941332 9.04335C0.0668667 8.57785 0.376161 8.18889 0.817249 8.02864L22.8865 0.0534458C23.234 -0.0744936 23.6252 0.0323367 23.8607 0.319604C24.0973 0.607789 24.125 1.01363 23.9308 1.33045Z" fill="#51FAFF"/>
<path d="M23.8607 0.319641L11.5632 8.81761L6.22944 12.8001C5.97925 12.9867 5.82983 13.2852 5.82983 13.5974V17.2866C5.82983 17.6669 6.03854 18.0153 6.37427 18.1963C6.71091 18.3773 7.11712 18.3595 7.43688 18.1487L9.8334 16.5586L12.1905 18.1658C12.3968 18.3073 12.6427 18.382 12.8909 18.382C12.9752 18.382 13.0592 18.3736 13.142 18.3562C13.473 18.287 13.7659 18.0825 13.9456 17.7952L23.9308 1.33049C24.125 1.01367 24.0973 0.607826 23.8607 0.319641Z" fill="#00E7F0"/>
</svg>
