<svg width="34" height="34" viewBox="0 0 34 34" fill="none" xmlns="http://www.w3.org/2000/svg">
<path d="M17 34C26.3888 34 34 26.3888 34 17C34 7.61116 26.3888 0 17 0C7.61116 0 0 7.61116 0 17C0 26.3888 7.61116 34 17 34Z" fill="#1C8ADB"/>
<path d="M26.2611 8.78975L25.9095 8.91725L6.82699 15.7926C6.69176 15.8344 6.57423 15.9199 6.49282 16.0357C6.41141 16.1515 6.37071 16.291 6.37712 16.4324C6.38353 16.5738 6.43667 16.7091 6.52822 16.8171C6.61978 16.925 6.74456 16.9995 6.88302 17.029L11.8227 18.3812L12.7442 21.0858L13.6656 23.7903C13.7186 23.9229 13.8031 24.0406 13.9118 24.1331C14.0205 24.2256 14.1502 24.2902 14.2895 24.3212C14.4289 24.3522 14.5737 24.3488 14.7114 24.3111C14.8491 24.2735 14.9755 24.2028 15.0797 24.1052L17.6317 21.6943L22.6428 25.0924C23.2552 25.5096 24.1284 25.2006 24.2848 24.5128L27.6037 9.84839C27.766 9.12203 27.001 8.5251 26.2611 8.78975ZM23.8251 12.0449L15.2034 19.0921L14.7977 19.4244C14.7086 19.4951 14.6504 19.5976 14.6354 19.7103L14.5446 20.4599L14.2954 22.5655C14.2975 22.5912 14.2892 22.6165 14.2726 22.6361C14.2559 22.6557 14.2322 22.6678 14.2065 22.6699C14.1809 22.6719 14.1555 22.6637 14.136 22.647C14.1164 22.6304 14.1043 22.6066 14.1022 22.581L13.401 20.4773L12.6765 18.3233C12.6459 18.2265 12.65 18.122 12.688 18.0278C12.7261 17.9337 12.7958 17.8558 12.8852 17.8075L21.8565 12.665L23.5449 11.6991C23.7903 11.5561 24.0414 11.8671 23.8251 12.0449Z" fill="white"/>
</svg>
