<svg width="24" height="22" viewBox="0 0 24 22" fill="none" xmlns="http://www.w3.org/2000/svg">
<path d="M18.0595 4.22463L8.18903 10.3038C7.63047 10.6487 7.36614 11.3297 7.54609 11.9596L8.61334 15.7096C8.70452 16.0293 8.98905 16.2419 9.31642 16.2419C9.33466 16.2419 9.35308 16.2412 9.37155 16.2399C9.72152 16.2145 9.99845 15.9538 10.045 15.6063L10.3225 13.5501C10.3599 13.2735 10.4932 13.0161 10.6975 12.8259L18.8428 5.25447C19.0889 5.02624 19.1215 4.65251 18.9186 4.38518C18.7155 4.11761 18.3463 4.04843 18.0595 4.22463ZM10.0463 12.1258C9.68027 12.4665 9.44181 12.9269 9.37487 13.4222L9.2403 14.4196L8.46559 11.6974C8.40264 11.4769 8.49536 11.2385 8.69083 11.1178L15.9217 6.66438L10.0463 12.1258Z" fill="#5799D7"/>
<path d="M23.6095 0.261903C23.3012 0.000528194 22.8756 -0.071425 22.4987 0.0741688L0.706888 8.48082C0.27531 8.64728 -0.0021901 9.05364 1.30226e-05 9.51606C0.00226302 9.9789 0.283841 10.383 0.717951 10.5457L5.80811 12.4455L7.79368 18.831C7.90272 19.1821 8.17792 19.4548 8.52976 19.5607C8.88142 19.6664 9.2612 19.5908 9.54508 19.3586L12.5048 16.9458C12.6469 16.83 12.8499 16.8242 12.9983 16.932L18.3365 20.8077C18.5286 20.9473 18.7552 21.0191 18.9845 21.0191C19.1188 21.0191 19.254 20.9945 19.3837 20.9443C19.7346 20.8086 19.9898 20.5078 20.0662 20.1398L23.9769 1.32845C24.0591 0.932356 23.9183 0.5237 23.6095 0.261903ZM23.0408 1.13415L19.1301 19.9455C19.1159 20.0134 19.067 20.0417 19.039 20.0525C19.0109 20.0634 18.9554 20.0754 18.8986 20.0341L13.5601 16.1582C13.3215 15.985 13.0409 15.899 12.7608 15.899C12.4553 15.899 12.1502 16.0014 11.9008 16.2046L8.94044 18.6179C8.88775 18.661 8.83304 18.6534 8.8052 18.645C8.77717 18.6365 8.72715 18.6126 8.70681 18.5472L6.65158 11.9375C6.60765 11.7963 6.50078 11.6833 6.36222 11.6316L1.05292 9.65003C0.973419 9.62026 0.956497 9.55825 0.956263 9.51142C0.956029 9.46501 0.972341 9.40328 1.05109 9.3729L22.843 0.966294C22.843 0.966247 22.8432 0.9662 22.8433 0.966153C22.9141 0.938825 22.9665 0.970231 22.9914 0.991325C23.0164 1.01265 23.0563 1.05953 23.0408 1.13415Z" fill="#5799D7"/>
</svg>
