<svg width="34" height="34" viewBox="0 0 34 34" fill="none" xmlns="http://www.w3.org/2000/svg">
<path d="M17 34C26.3888 34 34 26.3888 34 17C34 7.61116 26.3888 0 17 0C7.61116 0 0 7.61116 0 17C0 26.3888 7.61116 34 17 34Z" fill="#4065D6"/>
<path d="M24.8402 21.8584C24.442 21.9143 22.5071 21.8584 22.4065 21.8584C21.9062 21.8635 21.4241 21.6714 21.0644 21.3238C20.655 20.9301 20.286 20.4962 19.8945 20.0868C19.7757 19.962 19.6478 19.8462 19.512 19.7401C19.1921 19.4963 18.8767 19.5522 18.7269 19.928C18.6095 20.3353 18.5287 20.7523 18.4853 21.1739C18.4783 21.3515 18.4011 21.5191 18.2707 21.6399C18.1403 21.7607 17.9673 21.8248 17.7896 21.8181C17.5257 21.8316 17.2617 21.8383 17 21.8316C16.048 21.8266 15.1106 21.5967 14.2644 21.1605C13.3508 20.65 12.5545 19.9535 11.9269 19.116C10.9227 17.7901 10.0549 16.3662 9.33661 14.866C9.29859 14.79 8.54477 13.1862 8.52688 13.1123C8.48014 13.0072 8.47568 12.8882 8.51442 12.7799C8.55316 12.6716 8.63212 12.5824 8.7349 12.5308C8.86911 12.4793 11.3542 12.5308 11.3945 12.5308C11.5796 12.529 11.7603 12.5864 11.9104 12.6947C12.0605 12.8029 12.1721 12.9563 12.2289 13.1325C12.6885 14.3042 13.3161 15.4028 14.0921 16.3938C14.2004 16.5274 14.3278 16.6442 14.4702 16.7405C14.5069 16.7759 14.5524 16.8009 14.602 16.8129C14.6515 16.8248 14.7034 16.8233 14.7522 16.8085C14.801 16.7936 14.845 16.766 14.8796 16.7285C14.9141 16.691 14.9381 16.645 14.9489 16.5951C15.0472 16.2717 15.105 15.9374 15.1211 15.5997C15.1345 14.9287 15.1211 14.4813 15.0831 13.8102C15.0966 13.5816 15.0194 13.3568 14.8682 13.1847C14.717 13.0125 14.5041 12.907 14.2756 12.8909C14.0787 12.8573 14.0519 12.6963 14.1883 12.5352C14.45 12.2019 14.8124 12.1483 15.2061 12.1281C15.8011 12.0946 16.3983 12.1281 16.9956 12.1281H17.1253C17.3875 12.1275 17.6491 12.1537 17.906 12.2064C18.0561 12.2372 18.1924 12.3156 18.2944 12.4301C18.3963 12.5446 18.4586 12.689 18.4719 12.8417C18.502 13.0107 18.5155 13.1823 18.5121 13.3539C18.4965 14.0854 18.4607 14.8168 18.4517 15.5505C18.4464 15.8403 18.4727 16.1298 18.53 16.4139C18.6173 16.8031 18.8835 16.9016 19.1564 16.6175C19.4964 16.2525 19.8082 15.8621 20.0891 15.4498C20.5942 14.6991 21.01 13.8922 21.3283 13.0452C21.5006 12.6113 21.6325 12.5151 22.1 12.5151H24.7373C24.8946 12.5125 25.0515 12.5336 25.2025 12.5777C25.2559 12.592 25.3057 12.617 25.3489 12.6513C25.3922 12.6855 25.4279 12.7283 25.4539 12.777C25.4799 12.8256 25.4956 12.8791 25.5001 12.9341C25.5046 12.9891 25.4977 13.0445 25.4799 13.0967C25.3257 13.6578 25.0611 14.1826 24.7015 14.6401C24.1646 15.3984 23.601 16.1388 23.0507 16.8769C22.9811 16.9735 22.9176 17.0744 22.8606 17.1789C22.6548 17.5502 22.6704 17.7605 22.9679 18.0737C23.4466 18.5658 23.9589 19.0288 24.4196 19.5343C24.7595 19.9027 25.0663 20.3001 25.3367 20.7221C25.6767 21.2679 25.4687 21.7689 24.8402 21.8584Z" fill="white"/>
</svg>
