<svg width="34" height="34" viewBox="0 0 34 34" fill="none" xmlns="http://www.w3.org/2000/svg">
<path d="M0 34L3.44761 24.1497C2.12361 21.7509 1.42594 19.0428 1.42594 16.2871C1.42594 11.9367 3.12003 7.84656 6.1963 4.77043C9.27257 1.69429 13.3625 0 17.713 0C22.0635 0 26.1534 1.69409 29.2296 4.77036C32.3058 7.84663 34 11.9366 34 16.287C34 20.6374 32.3059 24.7275 29.2296 27.8036C26.1534 30.8798 22.0634 32.574 17.713 32.574C14.9571 32.574 12.2492 31.8764 9.85037 30.5523L0 34Z" fill="#86F28B"/>
<path d="M0 34L9.85024 30.5524C12.2491 31.8764 14.9571 32.5741 17.7129 32.5741C22.0633 32.5741 26.1534 30.8799 29.2296 27.8037C32.3057 24.7275 34 20.6375 34 16.287C34 11.9366 32.3059 7.84659 29.2296 4.77039L0 34Z" fill="#66E26F"/>
<path d="M14.0131 19.9871C17.9073 23.8813 22.3268 25.7754 23.8845 24.2177L25.7647 22.3374C26.1541 21.948 26.1541 21.3166 25.7647 20.9272L23.4144 18.5769C23.025 18.1875 22.3936 18.1875 22.0042 18.5769L20.594 19.9871C17.7062 18.6192 15.381 16.2939 14.0131 13.4062L15.4233 11.996C15.8127 11.6066 15.8127 10.9752 15.4233 10.5858L13.073 8.23548C12.6836 7.84607 12.0522 7.84607 11.6628 8.23548L9.78254 10.1157C8.22478 11.6733 10.1189 16.0929 14.0131 19.9871Z" fill="white"/>
<path d="M25.7646 20.9272L23.4143 18.5769C23.0249 18.1875 22.3935 18.1875 22.0041 18.5769L20.5939 19.9871C19.15 19.3032 17.8468 18.3799 16.7335 17.2666L14.0129 19.9871C17.9071 23.8813 22.3267 25.7754 23.8844 24.2177L25.7646 22.3375C26.154 21.948 26.154 21.3167 25.7646 20.9272Z" fill="#DCF4FF"/>
</svg>
