<svg width="211" height="29" viewBox="0 0 211 29" fill="none" xmlns="http://www.w3.org/2000/svg">
<g clip-path="url(#clip0_54_5955)">
<path d="M5.58337 22.5556H0.887268V1.5037H5.58337V9.71392L13.7334 1.5037H19.8535L10.643 10.8267L20.4594 22.5556H14.2787L7.09824 13.9544L5.58337 15.4881V22.5556ZM21.6765 20.1196C21.6765 19.3978 21.9694 18.7963 22.5551 18.3151C23.1408 17.8138 23.7973 17.5633 24.5245 17.5633C24.888 17.5633 25.292 17.6535 25.7364 17.8339C26.1605 18.0345 26.5342 18.3452 26.8574 18.7662C27.1603 19.2073 27.3118 19.6585 27.3118 20.1196C27.3118 20.8212 27.0189 21.4328 26.4332 21.9541C25.8676 22.4753 25.2314 22.736 24.5245 22.736C23.757 22.736 23.0904 22.4854 22.5248 21.9841C21.9592 21.4829 21.6765 20.8614 21.6765 20.1196ZM41.7391 22.5556H37.043V1.5037H53.1007V5.86444H41.7391V10.4658H52.3432V14.8265H41.7391V22.5556ZM57.4064 12.1499L55.3159 8.99215C56.0835 8.17012 57.1034 7.56864 58.3759 7.1877C59.6686 6.78672 60.9613 6.58622 62.254 6.58622C64.2941 6.58622 65.8796 7.15763 67.0107 8.30044C68.1418 9.44326 68.7073 11.0372 68.7073 13.0822V22.5556H64.3142V21.1421C63.8699 21.6433 63.2337 22.0343 62.4055 22.315C61.5976 22.5956 60.8199 22.736 60.0726 22.736C58.4164 22.736 57.0428 22.2849 55.9521 21.3827C54.8614 20.4804 54.316 19.2273 54.316 17.6234C54.316 16.4004 54.6998 15.3879 55.4673 14.5859C56.2349 13.7839 57.1236 13.2326 58.1335 12.9319C59.1636 12.6311 60.2746 12.4807 61.4662 12.4807C62.658 12.4807 63.6073 12.611 64.3142 12.8717C64.3547 12.1099 64.1526 11.5484 63.7082 11.1876C63.2437 10.8267 62.5974 10.6462 61.7692 10.6462C60.2948 10.6462 58.8405 11.1475 57.4064 12.1499ZM60.9815 18.9767C61.648 18.9767 62.2944 18.8164 62.9205 18.4956C63.5669 18.1747 64.0315 17.7437 64.3142 17.2024V16.4806C63.6073 16.2199 62.8095 16.0896 61.9207 16.0896C61.234 16.0896 60.6482 16.1498 60.1634 16.2701C59.295 16.5507 58.8607 17.0018 58.8607 17.6234C58.8607 18.1046 59.0727 18.4555 59.4969 18.676C59.9413 18.8765 60.4361 18.9767 60.9815 18.9767ZM93.8005 12.1499V22.5556H89.4074V13.383C89.4074 11.5785 88.7308 10.6763 87.3775 10.6763C86.7918 10.6763 86.2665 10.8567 85.802 11.2176C85.3576 11.5584 85.0143 12.0095 84.7719 12.571V22.5556H80.3788V12.6612C80.3788 12.0798 80.2172 11.6086 79.894 11.2477C79.5708 10.8667 79.1163 10.6763 78.5306 10.6763C77.8843 10.6763 77.3087 10.8567 76.8037 11.2176C76.2987 11.5584 75.9453 12.0196 75.7433 12.601V22.5556H71.3501V6.91704H75.7433V7.96963C76.5107 7.06741 77.7732 6.61629 79.5304 6.61629C81.1665 6.61629 82.5198 7.17768 83.5903 8.30044C84.6608 7.17768 86.0343 6.61629 87.7107 6.61629C89.6094 6.61629 91.094 7.07743 92.1645 7.9997C93.2552 8.92198 93.8005 10.3054 93.8005 12.1499ZM101.047 22.5556H96.6537V6.91704H101.047V22.5556ZM96.381 2.76681C96.381 2.12524 96.6334 1.60395 97.1384 1.20296C97.6434 0.801973 98.2191 0.601479 98.8654 0.601479C99.5319 0.601479 100.108 0.801973 100.592 1.20296C101.077 1.60395 101.319 2.12524 101.319 2.76681C101.319 3.42844 101.077 3.96978 100.592 4.39081C100.128 4.7918 99.5522 4.99229 98.8654 4.99229C98.1786 4.99229 97.5929 4.7918 97.1081 4.39081C96.6234 3.98983 96.381 3.4485 96.381 2.76681ZM108.438 22.5556H104.044V0.601479H108.438V22.5556ZM122.445 6.91704H127.141L118.264 28.5704H113.507L116.749 21.2323L109.205 6.91704H114.325L118.9 15.9994L122.445 6.91704ZM154.621 22.5556H149.925V14.1348H140.502V22.5556H135.806V1.5037H140.502V9.77407H149.925V1.5037H154.621V22.5556ZM157.195 14.7062C157.195 12.3003 158.013 10.3455 159.649 8.84178C161.285 7.33807 163.305 6.58622 165.709 6.58622C168.153 6.58622 170.193 7.34809 171.829 8.87185C173.465 10.3756 174.283 12.3204 174.283 14.7062C174.283 17.1121 173.455 19.067 171.798 20.5707C170.142 22.0543 168.112 22.7961 165.709 22.7961C163.305 22.7961 161.285 22.0343 159.649 20.5105C158.013 18.9867 157.195 17.052 157.195 14.7062ZM161.74 14.7062C161.74 15.849 162.113 16.8114 162.861 17.5933C163.628 18.3552 164.578 18.7361 165.709 18.7361C166.92 18.7361 167.89 18.3653 168.617 17.6234C169.365 16.8815 169.738 15.9092 169.738 14.7062C169.738 13.5233 169.365 12.5509 168.617 11.789C167.869 11.0272 166.9 10.6462 165.709 10.6462C164.517 10.6462 163.557 11.0272 162.83 11.789C162.103 12.5509 161.74 13.5233 161.74 14.7062ZM178.024 10.977H175.025V6.91704H178.024V3.27807H182.418V6.91704H187.235V10.977H182.418V16.0596C182.418 16.4204 182.428 16.7312 182.448 16.9918C182.489 17.2324 182.55 17.5031 182.63 17.8038C182.731 18.0845 182.893 18.3051 183.114 18.4655C183.357 18.6059 183.66 18.676 184.023 18.676C184.953 18.676 185.852 18.3352 186.72 17.6535L188.538 20.7511C187.286 22.0744 185.64 22.736 183.599 22.736C181.863 22.736 180.499 22.2648 179.509 21.3225C178.52 20.3802 178.024 19.057 178.024 17.3527V10.977ZM201.015 17.0219L203.651 19.6684C201.973 21.7535 199.712 22.7961 196.864 22.7961C194.339 22.7961 192.289 22.0543 190.714 20.5707C189.138 19.087 188.35 17.1322 188.35 14.7062C188.35 12.2401 189.097 10.2753 190.592 8.8117C192.107 7.32805 194.086 6.58622 196.531 6.58622C198.732 6.58622 200.53 7.24785 201.924 8.57111C203.337 9.89437 204.045 11.6287 204.045 13.7739C204.045 14.3353 203.963 15.1774 203.802 16.3001H192.956C193.157 17.1221 193.632 17.7337 194.38 18.1347C195.126 18.5356 195.975 18.7361 196.925 18.7361C198.701 18.7361 200.065 18.1647 201.015 17.0219ZM196.379 10.4959C194.702 10.4959 193.592 11.1776 193.047 12.5409H199.5C199.136 11.1776 198.095 10.4959 196.379 10.4959ZM210.395 22.5556H206.002V0.601479H210.395V22.5556Z" fill="#011627"/>
</g>
<defs>
<clipPath id="clip0_54_5955">
<rect width="211" height="29" fill="white"/>
</clipPath>
</defs>
</svg>
